<?xml version="1.0" standalone="no"?>
<!DOCTYPE svg PUBLIC "-//W3C//DTD SVG 1.1//EN" "http://www.w3.org/Graphics/SVG/1.1/DTD/svg11.dtd" >
<!--
2013-9-30: Created.
-->
<svg>
<metadata>
Created by iconfont
</metadata>
<defs>

<font id="iconfont" horiz-adv-x="1024" >
  <font-face
    font-family="iconfont"
    font-weight="500"
    font-stretch="normal"
    units-per-em="1024"
    ascent="896"
    descent="-128"
  />
    <missing-glyph />
    
    <glyph glyph-name="x" unicode="x" horiz-adv-x="1001"
d="M281 543q-27 -1 -53 -1h-83q-18 0 -36.5 -6t-32.5 -18.5t-23 -32t-9 -45.5v-76h912v41q0 16 -0.5 30t-0.5 18q0 13 -5 29t-17 29.5t-31.5 22.5t-49.5 9h-133v-97h-438v97zM955 310v-52q0 -23 0.5 -52t0.5 -58t-10.5 -47.5t-26 -30t-33 -16t-31.5 -4.5q-14 -1 -29.5 -0.5
t-29.5 0.5h-32l-45 128h-439l-44 -128h-29h-34q-20 0 -45 1q-25 0 -41 9.5t-25.5 23t-13.5 29.5t-4 30v167h911zM163 247q-12 0 -21 -8.5t-9 -21.5t9 -21.5t21 -8.5q13 0 22 8.5t9 21.5t-9 21.5t-22 8.5zM316 123q-8 -26 -14 -48q-5 -19 -10.5 -37t-7.5 -25t-3 -15t1 -14.5
t9.5 -10.5t21.5 -4h37h67h81h80h64h36q23 0 34 12t2 38q-5 13 -9.5 30.5t-9.5 34.5q-5 19 -11 39h-368zM336 498v228q0 11 2.5 23t10 21.5t20.5 15.5t34 6h188q31 0 51.5 -14.5t20.5 -52.5v-227h-327z" />
    

    
    <glyph glyph-name="hot" unicode="&#58880;" d="M560.9787 362.5056c-3.9035 6.5935-8.4206 11.784-13.5534 15.5694-5.1357 3.7834-10.3184 5.7831-15.5541 6.0009-8.6255 0-15.4552-4.0543-20.484-12.1638-3.9035-6.0569-5.8523-13.245-5.8523-21.5694 0-12.2197 2.3605-26.3551 7.0845-42.4102 4.722-16.0561 10.6782-30.3025 17.8656-42.734 3.182-5.2994 7.1085-9.5155 11.7825-12.6504 4.671-3.1379 9.419-4.7028 14.2459-4.7028 7.802 0 14.093 3.0809 18.867 9.2437s7.1614 14.2723 7.1614 24.3275c0 13.0811-2.0017 27.1906-6.0062 42.3293C572.5303 338.8806 567.3446 351.8019 560.9787 362.5056zM895.1638 504.8861H137.19060958169646c-32.0126 0-57.9631-25.9494-57.9631-57.9607v-260.30451353982c0-32.0103 25.9505-57.9607 57.9631-57.9607h757.9731710900156c32.0116 0 57.9631 25.9504 57.9631 57.9607V446.9253845892485C953.1269 478.9367 927.1754 504.8861 895.1638 504.8861zM397.2609 248.33c0.8205-3.2438 1.7449-5.4073 2.7722-6.4866 1.0253-1.0823 4.2593-3.2438 9.7028-6.4876 3.9005-2.2695 5.8523-5.7311 5.8523-10.38 0-8.2184-4.647-14.1904-13.9381-17.9208-9.2931-3.7305-24.3605-5.5962-45.2032-5.5962-18.2774 0-31.7798 1.8937-40.5062 5.6772-7.908 3.4587-11.8584 8.81-11.8584 16.0551 0 6.1628 3.0271 10.9726 9.0862 14.4342 2.9771 1.7278 5.0058 3.4587 6.0831 5.1895 1.0783 1.7278 2.1296 4.9187 3.158 9.5685 1.8478 9.0818 2.7722 20.2163 2.7722 33.4093 0 6.8114-0.9504 11.0285-2.8492 12.6504-1.9008 1.6219-6.8536 2.4324-14.8625 2.4324-18.3803 0-30.0858-1.0823-35.1156-3.2438-2.0547-0.8674-3.3379-3.4057-3.8505-7.6228-0.6166-5.1895-0.9244-11.5702-0.9244-19.137 0-12.3256 1.641-21.1926 4.9289-26.598 1.1283-1.7298 3.7976-3.9473 8.0089-6.6485 4.3123-2.5952 6.4689-6.8673 6.4689-12.8123 0-7.5689-4.9808-13.3539-14.9395-17.3532-9.9607-3.9983-24.1806-6.0009-42.6618-6.0009-16.8403 0-30.5985 1.8398-41.2757 5.5153-4.6211 1.6209-8.2398 3.9173-10.8581 6.8923-2.6183 2.972-3.9275 6.2438-3.9275 9.8113s0.8205 6.3247 2.4644 8.2704c1.641 1.9467 5.2367 4.433 10.7811 7.4609 2.8732 1.513 4.9019 3.4587 6.0831 5.839 1.1792 2.3764 2.0797 6.3777 2.6953 12.0009 1.54 12.6504 2.3105 29.1932 2.3105 49.6284 0 3.7834-0.053 8.2714-0.1539 13.4609-0.4117 25.9484-0.6166 40.7604-0.6166 44.4379 0.1009 9.2977-0.6426 15.4325-2.2326 18.4075-1.593 2.973-5.7753 6.2438-12.553 9.8123-4.5191 2.2705-6.7767 5.6762-6.7767 10.2171 0 10.9196 10.0616 18.4885 30.1868 22.7056 11.7045 2.4863 23.7179 3.7305 36.039 3.7305 32.0346 0 48.0524-6.9743 48.0524-20.9218 0-3.7864-0.8235-6.8673-2.4644-9.2437-1.644-2.3794-4.774-5.0276-9.395-7.9476-4.0044-2.5952-6.5458-5.9999-7.6231-10.2171-1.0783-4.2171-1.617-12.7593-1.617-25.6246 0-7.5699 1.3332-12.2197 4.0044-13.9475 1.54-1.0823 3.8745-1.7308 7.0075-1.9467 3.131-0.2179 10.4963-0.3238 22.1009-0.3238 10.5743 0 17.1461 0.5926 19.7134 1.7838 2.5654 1.1882 3.8505 4.1612 3.8505 8.92 0 14.2723-0.6166 24.2186-1.8488 29.8418-1.2322 5.6212-3.6457 9.4596-7.2384 11.5142-4.5191 2.7012-7.4962 4.9996-8.9323 6.8923-1.4391 1.8907-2.1566 4.404-2.1566 7.5409 0 4.433 1.591 8.4593 4.775 12.0828 3.181 3.6215 7.3393 6.0819 12.4751 7.379 10.6772 2.7012 24.0767 4.0553 40.1974 4.0553 18.891 0 32.8291-1.8118 41.8154-5.4333 8.9833-3.6235 13.4764-9.2717 13.4764-16.9475 0-6.4876-3.184-11.3523-9.5489-14.5961-4.0044-1.9467-6.6218-3.8114-7.854-5.5952s-2.2096-5.1085-2.9261-9.9742c-0.4117-2.7042-0.9244-14.705-1.54-36.0046-0.6166-21.3016-0.9244-38.2221-0.9244-50.7626C394.9514 268.2225 395.7209 254.275 397.2609 248.33zM636.2927 243.951c-13.5534-17.0854-31.2651-29.3551-53.1352-36.815-13.4524-4.5409-26.9528-6.8114-40.5062-6.8114-17.7637 0-34.7559 3.8924-50.9785 11.6771-19.6125 9.4066-34.9607 23.623-46.0507 42.6541-10.7811 18.3805-16.1717 38.6528-16.1717 60.8188 0 25.7316 6.9306 48.4362 20.7918 68.1158 12.3212 17.5151 28.9016 30.3814 49.7463 38.5988 13.9621 5.6212 29.4672 8.4333 46.5124 8.4333 26.3862 0 49.4385-7.9466 69.152-23.8408 13.3455-10.9216 24.1796-25.085 32.4973-42.4912 8.1098-17.3003 12.1672-34.6005 12.1672-51.8988C660.3184 286.8729 652.3095 264.0614 636.2927 243.951zM878.4025 350.9904c-4.1074-3.2438-9.0362-4.8657-14.7856-4.8657-5.4425 0-10.1645 1.5939-14.169 4.7848-4.0054 3.1878-7.9589 8.4583-11.8594 15.8123-3.3888 6.7035-6.0591 11.0815-8.0089 13.1371-1.9518 2.0526-4.3123 3.0819-7.0845 3.0819-3.8006 0-6.5218-1.6779-8.1628-5.0276-1.645-3.3527-2.4644-8.867-2.4644-16.5428v-90.82142307515504c0-9.3007 0.9234-16.0561 2.7712-20.2733 1.8488-4.2161 5.3376-7.4599 10.4723-9.7304 5.5455-2.4883 9.3181-4.8397 11.3208-7.0552 2.0017-2.2175 3.0031-5.2704 3.0031-9.1628 0-7.7847-5.0058-13.5708-15.0164-17.3532-10.0116-3.7834-25.3878-5.6772-46.1266-5.6772-25.4648 0-44.3567 2.2175-56.6779 6.6495-10.3714 3.6745-15.5551 9.6215-15.5551 17.8399 0 4.433 1.8488 7.8907 5.5445 10.38 0.9244 0.5396 4.5681 1.8378 10.935 3.8934 3.9005 1.1872 6.5968 3.4587 8.0858 6.8104 1.4871 3.3507 2.6953 9.7844 3.6197 19.2999 0.8205 8.4323 1.591 22.082 2.3105 40.9502 0.7175 18.8662 1.0783 35.2191 1.0783 49.0597 0 9.7304-0.7205 16.6487-2.1566 20.7589-1.4381 4.1072-3.7996 6.1628-7.0845 6.1628-4.0044 0-7.908-3.0279-11.7055-9.0818-6.8806-11.0285-12.528-18.3266-16.9412-21.8942-5.2367-4.2171-10.3184-6.3257-15.2473-6.3257-5.5455 0-10.1146 2.1895-13.7083 6.5685-3.5957 4.379-5.3906 9.9742-5.3906 16.7856 0 6.7025 1.4371 14.0815 4.3123 22.138 2.8732 8.0535 6.7237 15.4885 11.5516 22.2999 7.802 11.0285 15.5021 16.5428 23.1013 16.5428 2.0537 0 4.4142-0.3248 7.0855-0.9733 5.5445-1.1912 10.0876-2.0016 13.6303-2.4334 3.5427-0.4337 7.6241-0.6486 12.2442-0.6486h81.16529770536168c8.7254 0.3238 16.6844 1.5659 23.8728 3.7295 3.08 0.8644 5.8003 1.2971 8.1628 1.2971 8.3167 0 16.4026-6.4876 24.2575-19.4618 7.854-12.9742 11.7815-26.3291 11.7815-40.0588C886.5653 362.1818 883.844 355.3135 878.4025 350.9904z"  horiz-adv-x="1000" />

    
    <glyph glyph-name="meiyingbao" unicode="&#58980;" d="M835.727521 462.056909c3.862981 17.895579 5.918803 36.46654 5.918803 55.518454 0 144.574746-117.201306 261.775029-261.777075 261.775029-127.489626 0-233.67504-91.142813-256.995165-211.82336-0.560772-2.636037-1.093914-5.28947-1.567705-7.973602-23.476691-4.853541-58.304917 8.330736-58.304917 8.330736l-42.835597 5.948479 13.08911-115.419729c0 0-97.571223-75.470879-103.520725-165.052127-24.834618-3.287883-33.43653-2.038426-65.444525-9.861602s-28.057009-41.645492-28.057009-41.645492l0-146.356322c0 0 4.260024-34.506908 31.627325-35.69599 37.406958-0.249687 42.191938 0.301875 59.493999 0 8.516977-18.851347 51.650357-126.20026 117.79994-148.739603-0.023536-34.473139-0.659009-45.293579 0-58.304917 0.659009-13.009292 16.658402-32.108279 33.316803-32.108279 16.658402 0 93.596701 0 120.179127 0 26.582425 0 29.746488 35.343973 29.746488 35.343973l208.229508 0.333598c0 0 2.38021-35.677571 36.887119-35.677571 34.507932 0 104.307647 0 107.090017 0s39.266305 14.007015 39.266305 42.817178c0 28.812209 0 35.698037 0 35.698037S1187.182035 149.551476 835.727521 462.056909zM438.022637 242.078823c-0.895393-3.325745-4.476965-10.809183-14.83794-10.744715-6.843872-0.148379-13.942547 1.471514-17.396205 9.209756-4.093225 14.262842-5.372358 35.178197-40.420595 35.30611-23.536043-1.534959-25.582655-26.094308-29.164227-35.30611-1.662873-6.011924-4.988618-7.611352-8.18645-9.209756s-15.861246-2.430352-18.931165 0-3.773953 1.918699-5.116531 10.744715c-0.907673 5.967922-7.674796 68.562539 66.514903 68.050885C443.778734 309.6815 438.91803 245.404568 438.022637 242.078823zM754.116805 407.782795c-126.996392-8.553817-212.508975-19.352767-350.514095 1.337461-26.169009 3.923356-31.44006 69.444629-31.44006 109.756753 0 114.38926 92.728938 207.119221 207.117175 207.119221 114.38926 0 207.119221-92.729961 207.119221-207.119221C786.401092 477.998997 792.089651 410.341061 754.116805 407.782795zM701.0154 572.16261c16.460904 1.080611 25.230638 9.311063 26.335808 24.691355-1.105171 14.248516-9.874905 21.938662-26.335808 23.045879l-56.809867 0c7.66354 18.646686 12.063757 34.001395 13.168927 46.089711 1.080611 12.062733-4.938476 19.186991-18.10638 21.399379-14.274098 1.080611-23.610744-4.399193-27.983331-16.461927-3.294023-13.167904-8.230452-29.088502-14.81645-47.734164 0 1.080611-0.565888 0-1.644453-3.291976l-29.247114 0c-10.981099 25.229614-21.964244 44.983517-32.920784 59.258639-8.797363 9.874905-19.753903 12.06171-32.921807 6.583952-12.088316-6.583952-15.380292-15.920598-9.875928-27.983331 3.291976-5.503341 7.124258-12.629645 11.523451-21.398356 4.371564-6.584975 7.66354-12.088316 9.874905-16.460904l-50.632167 0c-14.273075-1.106194-21.964244-8.797363-23.044856-23.045879 1.080611-15.379269 8.770757-23.610744 23.044856-24.691355l94.681406 0 0-51.027164L463.916377 521.136469c-15.380292-1.106194-23.610744-8.79634-24.692379-23.044856 1.081635-14.275121 8.770757-21.964244 23.045879-23.045879l93.03593 0 0-45.167712c1.080611-16.460904 9.875928-25.231661 26.334785-26.336832 16.460904 2.212388 25.231661 11.523451 26.337855 27.983331l0 43.521213 91.388407 0c14.250562 1.081635 21.938662 8.769734 23.045879 23.045879-1.106194 14.248516-8.79634 21.937638-23.045879 23.044856l-91.387383 0 0 51.027164L701.0154 572.16261 701.0154 572.16261z"  horiz-adv-x="1024" />

    
    <glyph glyph-name="iconfontclose" unicode="&#58954;" d="M557.312 286.752l265.28 263.904c12.544 12.48 12.608 32.704 0.128 45.248-12.512 12.576-32.704 12.608-45.248 0.128l-265.344-263.936-263.040 263.84c-12.448 12.48-32.704 12.544-45.248 0.064-12.512-12.48-12.544-32.736-0.064-45.28l262.976-263.776-265.152-263.744c-12.544-12.48-12.608-32.704-0.128-45.248 6.24-6.272 14.464-9.44 22.688-9.44 8.16 0 16.32 3.104 22.56 9.312l265.216 263.808 265.44-266.24c6.24-6.272 14.432-9.408 22.656-9.408 8.192 0 16.352 3.136 22.592 9.344 12.512 12.48 12.544 32.704 0.064 45.248l-265.376 266.176z"  horiz-adv-x="1024" />

    
    <glyph glyph-name="you" unicode="&#58928;" d="M655.584 383.968c0.992 13.184-3.264 26.657-13.312 36.928l-192.128 192.416c-18.688 18.592-48.896 18.624-67.68 0-18.688-18.656-18.592-48.992-0.128-67.648l161.792-161.728-161.824-161.6c-18.496-18.752-18.784-48.832-0.064-67.584 18.88-18.688 48.992-18.624 67.744 0l192.288 192.16c10.143 10.176 14.336 23.648 13.312 37.057v0zM473.376 384.224zM512-62.913c-246.4 0-446.879 200.512-446.879 446.912s200.449 446.912 446.879 446.912c246.432 0 446.945-200.512 446.945-446.912s-200.512-446.912-446.945-446.912zM512 757.76c-206.081 0-373.76-167.648-373.76-373.76s167.648-373.76 373.76-373.76 373.76 167.68 373.76 373.76-167.68 373.76-373.76 373.76z"  horiz-adv-x="1024" />

    
    <glyph glyph-name="douzi" unicode="&#58914;" d="M708.829867 715.383467c-44.680533 28.996267-176.827733 31.5904-253.610667-47.291733-13.602133-10.478933-129.792-138.752-239.4624-147.3536-166.5536-16.9984-267.144533-160.443733-156.859733-322.730667 20.701867-28.501333 153.463467-161.262933 362.120533-102.570667 333.841067 99.771733 361.6768 394.5984 362.103467 427.997867C783.496533 551.509333 780.100267 666.794667 708.829867 715.383467zM729.5488 447.5392c-30.0032-106.274133-79.2064-190.2592-200.6528-263.748267-47.394133-28.808533-126.173867-78.097067-241.152-60.586667C165.2736 143.189333 83.575467 224.597333 69.495467 295.4752c-33.792 153.070933 153.070933 194.2528 201.352533 192.648533 118.971733 40.6016 159.982933 87.466667 219.357867 156.3648 54.971733 60.398933 192.443733 45.192533 215.534933 18.005333C731.426133 642.491733 759.5008 544.9216 729.5488 447.5392zM837.495467 500.736c4.693333-211.8656-158.344533-359.816533-303.616-432.008533 312.029867-123.665067 455.389867 115.2512 474.0608 213.6576C1035.144533 437.947733 891.784533 492.219733 837.495467 500.736zM964.283733 258.491733c-11.793067-62.0032-134.587733-229.632-333.312-177.152 91.562667 45.499733 246.408533 229.051733 243.524267 362.410667C908.680533 438.442667 994.474667 387.549867 964.283733 258.491733zM297.0112 376.4224c-8.7552 13.431467-9.0624 41.864533 23.893333 47.018667 76.544 13.892267 132.795733 58.2656 200.106667 113.5616 12.356267 6.877867 20.770133-2.9696 19.182933-13.277867-1.672533-16.657067-136.021333-143.7184-159.1296-155.374933C340.599467 353.1264 304.042667 365.1584 297.0112 376.4224z"  horiz-adv-x="1024" />

    
    <glyph glyph-name="zhuanshujietijia" unicode="&#58917;" d="M894.4-128 129.6-128c-56 0-67.2 38.4-65.6 64l75.2 672c1.6 16 11.2 64 56 64l97.6 0C305.6 798.4 398.4 896 512 896 624 896 718.4 798.4 731.2 672l97.6 0c43.2 0 52.8-48 54.4-64L960-64C961.6-86.4 953.6-128 894.4-128zM206.4 601.6c-6.4-6.4-8-20.8-8-20.8L136-32c0 0-3.2-19.2 3.2-27.2 6.4-6.4 24-4.8 24-4.8l699.2 0c0 0 17.6-1.6 24 4.8 4.8 4.8 1.6 27.2 1.6 27.2l-64 616c0 0 0 11.2-8 17.6-8 8-20.8 6.4-20.8 6.4L227.2 608C227.2 608 212.8 609.6 206.4 601.6zM356.8 672l308.8 0c-12.8 81.6-62.4 160-150.4 160C422.4 832 369.6 753.6 356.8 672zM304 16c16 27.2 28.8 59.2 35.2 96L384 112c-3.2-38.4-14.4-70.4-28.8-96L304 16zM308.8 368l0 32 177.6 0 0 32 67.2 0 0-32 184 0 0-32L552 368l0-32L704 336l0-91.2c1.6-38.4-17.6-54.4-57.6-54.4l-92.8 0 0-32 9.6 0c40 0 75.2 6.4 105.6 11.2l-9.6 17.6L704 187.2c14.4-24 22.4-48 27.2-73.6l-48 0c0 8-1.6 16-3.2 24-32-8-70.4-11.2-115.2-11.2l-256 0 0 32 177.6 0 0 32-145.6 0 0 144 145.6 0 0 32L308.8 366.4zM395.2 302.4l0-27.2 91.2 0 0 27.2L395.2 302.4zM395.2 224l91.2 0 0 32-91.2 0L395.2 224zM467.2 0c-41.6-1.6-62.4 17.6-60.8 54.4L406.4 112l56 0 0-48c-1.6-20.8 11.2-30.4 33.6-27.2l78.4 0c19.2-1.6 27.2 4.8 25.6 17.6L600 64l43.2 0 0-14.4c1.6-33.6-16-51.2-54.4-49.6L467.2 0zM536 64c-1.6 17.6-8 32-19.2 48l54.4 0c9.6-12.8 17.6-27.2 24-48L536 64zM651.2 302.4l-97.6 0 0-27.2 97.6 0L651.2 302.4zM628.8 224c16-1.6 24 11.2 22.4 28.8L651.2 256l-97.6 0 0-32L628.8 224zM678.4 16c-4.8 33.6-16 65.6-32 96l46.4 0c16-28.8 27.2-60.8 35.2-96L678.4 16zM324.8 528a2 2 0 1 0 64 0 2 2 0 1 0-64 0ZM635.2 528a2 2 0 1 0 64 0 2 2 0 1 0-64 0Z"  horiz-adv-x="1024" />

    
    <glyph glyph-name="ziyingmianyunfei" unicode="&#58919;" d="M795.2 529.6c-6.4 9.6-16 14.4-27.2 14.4l-32 0c-17.6 0-32-14.4-32-32l0-192c0-17.6 14.4-32 32-32l128 0c17.6 0 32 14.4 32 32l0 48c0 6.4-1.6 12.8-4.8 17.6L795.2 529.6zM864 320l-128 0L736 512l32 0 96-144L864 320zM1008 404.8l-128 192C862.4 624 832 640 800 640l-128 0 0 80c0 46.4-30.4 80-80 80L80 800c-49.6 0-80-33.6-80-80l0-384c0-48 33.6-80 80-80l16 0 0-112c0-49.6 35.2-80 80-80l67.2 0c11.2-48 59.2-96 116.8-96 57.6 0 107.2 48 116.8 96l164.8 0c11.2-48 59.2-96 116.8-96 57.6 0 107.2 48 116.8 96L944 64c48 0 80 32 80 80L1024 352C1024 371.2 1019.2 388.8 1008 404.8zM96 320c-17.6 0-32 14.4-32 32L64 704c0 17.6 14.4 32 32 32l480 0c17.6 0 32-14.4 32-32l0-352c0-17.6-14.4-32-32-32L96 320zM360 32c-30.4 0-56 25.6-56 56s25.6 56 56 56 56-25.6 56-56S390.4 32 360 32zM760 32c-30.4 0-56 25.6-56 56s25.6 56 56 56 56-25.6 56-56S790.4 32 760 32zM960 160c0-17.6-14.4-32-32-32l-54.4 0c-16 48-60.8 80-113.6 80-52.8 0-96-32-113.6-80L473.6 128c-16 48-60.8 80-113.6 80-52.8 0-96-32-113.6-80L192 128c-17.6 0-32 14.4-32 32l0 96 432 0c49.6 0 80 33.6 80 80L672 576l128 0c11.2 0 20.8-4.8 27.2-14.4l128-192c3.2-4.8 4.8-11.2 4.8-17.6L960 160z"  horiz-adv-x="1024" />

    
    <glyph glyph-name="lvxing" unicode="&#58898;" d="M729.472 729.472l32-32c17.6 17.6 46.4 17.6 64 0s17.6-46.4 0-64l32-32c35.2 35.2 35.2 92.8 0 128C823.872 764.672 766.272 764.672 729.472 729.472zM636.768 792.128l-67.232-91.264L161.248 788.928c-19.264 5.056-33.344 8.96-47.744 10.56-32.032 4.8-59.52-0.96-83.52-24.96C4.352 748.896-5.248 712.096 2.752 678.464l1.6-3.2c4.8-17.6 12.8-33.632 25.632-46.432s30.432-24 46.432-28.832c89.664-57.632 224.128-132.896 291.392-169.696l-96.064-128.096L182.048 302.208l-11.2 0-1.6 0c-46.432 3.2-67.232-4.8-92.864-30.432-40.032-40.032-40.032-105.664 0-145.696 14.4-14.4 30.432-24 48.032-27.232l1.6 0c49.632-4.8 86.464-4.8 110.464-8l1.6-1.6c1.6-19.2 1.6-46.432 4.8-78.464-1.6-28.832 8-57.632 28.832-78.464 14.4-14.4 33.632-24 51.232-27.232l0 0 0 0c32.032-6.4 67.232 3.2 92.864 28.832 27.232 27.232 28.832 65.632 28.832 104.064l1.6 96.064 120.064 96.064c38.432-68.832 112.064-200.128 166.496-286.592 6.4-14.4 14.4-28.832 27.232-41.632 12.8-12.8 28.832-22.4 46.432-25.632l1.6-1.6c0 0 0 0 1.6 1.6 33.632-8 70.432 1.6 96.064 27.232 25.632 25.632 36.832 62.432 30.432 94.464l-120.064 430.688 102.464 81.664c24.448 18.144 24 12.8 36.832 25.632 80.064 80.064 96.064 225.76 16 305.792s-225.76 64.032-305.792-16M69.984 667.264c-17.6 17.6-17.6 49.632 0 67.232 11.2 11.2 27.232 14.4 43.232 11.2l1.6 0 421.056-89.664-136.096-182.528L69.984 667.264zM876.896-16.384c3.2-14.4-1.6-32.032-12.8-43.232-17.6-17.6-46.432-17.6-64.032 0-6.4 6.4-11.2 12.8-12.8 20.8l-172.896 307.392 148.896 113.664L876.896-16.384zM902.528 566.4 902.528 566.4l-515.52-401.856-3.2-169.696c-1.6-8-4.8-14.4-11.2-20.8-17.6-17.6-46.432-17.6-64.032 0-6.4 6.4-9.6 12.8-11.2 20.8l-1.6 108.864c0 3.2 1.6 6.4 1.6 9.6l0 1.6c0 9.6-3.2 19.2-9.6 25.632-3.2 3.2-6.4 4.8-11.2 6.4l-1.6 0c-1.6 0-3.2 1.6-4.8 1.6-3.2 0-4.8 1.6-8 1.6s-4.8 0-9.6 0l-120.064 3.2 0 0c-6.4 1.6-12.8 8-19.2 12.8-17.6 17.6-17.6 46.432 0 64.032 6.4 6.4 12.8 11.2 20.8 12.8l0 0 166.496 0L694.4 769.728l0 0c3.2 4.8 8 11.2 12.8 16 57.632 57.632 166.496 73.632 224.128 17.6 57.632-57.632 40.032-166.496-17.6-224.128C910.528 572.8 905.728 571.2 902.528 566.4z"  horiz-adv-x="1025" />

    
    <glyph glyph-name="yonghufankui" unicode="&#58894;" d="M781.823183 896c-161.575486 0-292.571016-121.8584-292.571016-272.16533 0-76.288464 37.304233-156.015494 130.412673-202.968285 0-31.449956-29.765672-78.705603-59.681344-110.012702 89.452731 7.829989 128.582676 30.721385 160.401202 46.887077 19.821401-3.878566 40.301372-6.144277 61.439913-6.144277 161.574058 0 292.572444 121.8584 292.572444 272.309616C1074.395627 774.1416 943.39724 896 781.823183 896M307.639566 129.973938c75.99275 0 137.65552 61.735627 137.65552 137.728377 0 75.921321-61.66277 137.584092-137.65552 137.584092-75.994178 0-137.656949-61.66277-137.656949-137.584092C169.982617 191.709565 231.645387 129.973938 307.639566 129.973938M307.639566 74.974015C132.678384 74.974015 33.135668-13.530145 0-127.999984l615.423417 0C582.142036-13.530145 482.522176 74.974015 307.639566 74.974015"  horiz-adv-x="1075" />

    
    <glyph glyph-name="zhuanrang" unicode="&#58946;" d="M966.98239 896.000012c-282.770007 0-511.999994-229.229987-511.999994-511.999994 0-282.770007 229.229987-511.999994 511.999994-511.999994s511.999994 229.229987 511.999994 511.999994C1478.982384 666.770025 1249.752397 896.000012 966.98239 896.000012zM966.98239-67.882901c-249.568042 0-451.881715 202.314878-451.881715 451.88292 0 249.568042 202.314878 451.881715 451.881715 451.881715s451.88292-202.314878 451.88292-451.881715C1418.865309 134.431976 1216.550432-67.882901 966.98239-67.882901zM648.634635 508.048907 1138.058063 508.210263 1032.763775 601.370354 1074.156353 653.299224 1312.970151 445.330873 648.634635 445.330873ZM1076.496868 651.740248a27.924 27.933 0 1 0-43.523709-51.264097 27.924 27.933 0 1 0 43.523709 51.264097ZM651.948683 508.048189a25.748 25.756 0 1 0 0.179825-62.00879 25.748 25.756 0 1 0-0.179825 62.00879ZM1285.331349 259.951129 795.90792 259.789773 901.203413 166.629682 859.810835 114.700812 620.995832 322.669163 1285.331349 322.669163ZM857.469551 116.270022a27.924 27.933 0 1 0 43.523709 51.264097 27.924 27.933 0 1 0-43.523709-51.264097ZM1281.990176 259.963804a25.748 25.756 0 1 0-0.179825 62.00879 25.748 25.756 0 1 0 0.179825-62.00879Z"  horiz-adv-x="1479" />

    
    <glyph glyph-name="liwu-copy" unicode="&#58953;" d="M1028.725 512.383c0 40.487-33.208 73.402-74.222 73.402h-57.68c24.119 23.234 39.138 55.684 39.138 91.708 0.001 70.882-58.145 128.383-129.846 128.383-72.994 0-120.58-71.643-149.271-139.234-15.372 6.688-34.206 10.852-54.802 10.852-20.538 0-39.37-4.105-54.803-10.852-28.695 67.591-76.282 139.234-149.271 139.234-60.787 0-111.425-41.483-125.562-97.226 11.792-2.405 23.761-5.573 35.906-9.445 9.798 40.253 46.296 70.355 89.951 70.355 53.392 0 93.174-63.079 118.522-125.451-4.047-5.632-6.16-11.676-6.863-18.072 1.993 0.354 3.873 0.707 5.516 1.235-2.408-0.766-3.993-1.763-5.81-2.815-0.059-0.707-0.354-1.294-0.354-2.055 0-11.796 6.751-22.53 17.543-31.451-0.176-0.059-0.233-0.174-0.408-0.232-24.115-7.512-70.882-6.455-156.545 40.37-190.575 104.262-274.658 4.046-275.6 2.99-6.455-7.861-5.219-19.418 2.7-25.758 7.924-6.338 19.597-5.219 26.111 2.7 0.703 0.881 65.071 77.569 228.774-11.97 58.907-32.273 108.959-48.406 149.329-48.406 8.155 0 15.842 0.936 23.174 2.172 0.587-1.235 1.411-2.525 1.997-3.698h57.148v-146.746h-371.062v110.074c0 20.301 16.604 36.671 37.144 36.671h123.157c-12.557 5.812-25.404 12.087-38.668 19.361-12.378 6.75-24.406 12.439-36.143 17.369h-48.346c-41.014 0-74.227-32.916-74.227-73.402v-146.746h55.684v-330.164c0-40.549 33.211-73.407 74.226-73.407h593.672c41.014 0 74.227 32.858 74.227 73.407v329.985h55.858l-0.296 146.866zM583.558-1.203h-278.295c-20.481 0-37.083 16.371-37.083 36.671v330.17h315.378v-366.842zM694.806 622.399c0 7.745-2.698 15.078-7.508 21.707 25.346 62.372 65.071 125.451 118.522 125.451 51.166 0 92.767-41.136 92.767-91.711 0-50.518-41.601-91.706-92.767-91.706h-134.543c14.495 9.678 23.529 22.352 23.529 36.26v0zM602.042 604.090c-7.454 0-14.612 0.528-21.183 1.41-1.76 3.171-4.163 5.985-7.686 7.686-5.806 2.874-12.202 2.055-17.429-0.939-5.864 2.937-9.33 6.398-9.33 10.152 0 10.147 24.939 18.362 55.627 18.362 30.745 0 55.684-8.273 55.684-18.362 0-10.093-24.939-18.308-55.684-18.308v0zM935.962 35.47c0-20.301-16.603-36.671-37.083-36.671h-278.293v366.842h315.377v-330.17zM991.705 402.31h-371.061v146.745h333.92c20.534 0 37.142-16.371 37.142-36.671v-110.074zM991.705 402.31z"  horiz-adv-x="1140" />

    
    <glyph glyph-name="huatong" unicode="&#59058;" d="M492.568576 179.463168c103.544832 0 187.510784 84.017152 187.510784 187.660288L680.07936 708.35712C680.080384 811.999232 596.114432 896 492.568576 896 389.02272 896 305.055744 811.999232 305.055744 708.35712l0-341.233664C305.055744 263.48032 389.02272 179.463168 492.568576 179.463168zM339.1488 708.35712c0 84.649984 68.818944 153.5232 153.419776 153.5232 84.599808 0 153.418752-68.873216 153.418752-153.5232l0-341.233664c0-84.666368-68.818944-153.539584-153.418752-153.539584-84.600832 0-153.419776 68.87424-153.419776 153.539584L339.1488 708.35712zM748.183552 537.740288l0-170.616832c0-141.094912-114.699264-255.899648-255.698944-255.899648S236.785664 226.02752 236.785664 367.123456L236.785664 537.740288l-34.093056 0 0-170.616832c0-154.921984 122.105856-281.489408 275.009536-289.26976l-2.18112 0L475.521024-93.88032 322.019328-93.88032 322.019328-128l340.931584 0 0 34.11968L509.615104-93.88032 509.615104 77.852672l-2.347008 0c152.902656 7.781376 275.008512 134.347776 275.008512 289.26976L782.276608 537.740288 748.183552 537.740288z"  horiz-adv-x="1024" />

    
    <glyph glyph-name="zheng-triangle" unicode="&#58961;" d="M71.675 2.67l440.325 762.683 440.325-762.683z"  horiz-adv-x="1024" />

    
    <glyph glyph-name="bangzhu" unicode="&#58934;" d="M512 896 512 896c282.77248 0 511.99488-229.22752 511.99488-512S794.77248-128 512-128 0 101.22752 0 384 229.22752 896 512 896L512 896zM512 830.31552c-116.08064 0-225.20832-46.26944-307.29216-128.34816-82.0736-82.08384-137.97376-201.9072-137.97376-317.98272s55.90016-235.90912 137.97376-317.98272c82.07872-82.08384 191.2064-127.2832 307.29216-127.2832 116.08064 0 235.89888 55.90016 317.98272 137.97376 82.0736 82.07872 127.27808 191.21664 127.27808 307.29728s-55.89504 225.2032-137.97376 307.29216C737.20832 773.34528 628.08064 830.31552 512 830.31552L512 830.31552zM373.87776 468.23424c0.95232 34.45248 2.74432 60.65664 9.92256 78.60224 7.17824 17.9456 17.14688 33.9712 32.93696 48.09728 15.7952 14.1056 33.3824 24.51968 52.7616 31.22688 19.38432 6.69696 39.83872 10.04544 61.37856 10.04544 43.54048 0 79.03744-15.08864 107.99104-40.6784 26.9312-23.81824 38.1184-59.21792 38.1184-100.01408 0-19.1488-2.95424-36.49536-10.368-52.0448-7.42912-15.55968-17.89952-34.93888-42.07104-58.14272-24.1664-23.21408-40.192-39.72608-48.09216-49.53088-7.89504-9.81504-13.88032-21.53472-17.94048-35.1744-4.0704-13.63968-5.39136-13.50144-5.39136-20.66944L489.96352 279.95136c0 9.08288 2.1504 13.96224 6.46144 30.0032 4.30592 16.0256 10.76736 30.01856 19.3792 41.984 8.61696 11.96032 24.16128 29.54752 46.65344 52.76672 22.49216 23.20896 36.97152 40.07424 43.42784 50.60608 6.46144 10.5216 9.69216 26.19904 9.69216 47.01696 0 20.82304-7.41888 39.23968-22.25152 55.27552-14.83776 16.02048-36.37248 24.04352-64.60416 24.04352-63.65184 0-95.46752-37.80608-95.46752-113.408L373.87776 468.23936 373.87776 468.23424 373.87776 468.23424 373.87776 468.23424zM523.95008 239.872c-23.4752 0-42.5728-19.09248-42.5728-42.56768 0-23.47008 19.09248-42.56768 42.5728-42.56768 23.47008 0 42.56768 19.0976 42.56768 42.56768C566.4 220.77952 547.42016 239.872 523.95008 239.872L523.95008 239.872z"  horiz-adv-x="1024" />

    
    <glyph glyph-name="hot1" unicode="&#58939;" d="M586.35 483.761c-5.037 5.413-11.116 9.692-18.239 12.823-7.122 3.137-14.961 4.705-23.513 4.705-8.545 0-16.339-1.568-23.363-4.705-7.03-3.133-13.105-7.409-18.238-12.823-5.127-5.413-9.07-11.922-11.825-19.519-2.759-7.599-4.131-15.771-4.131-24.507 0-9.119 1.422-17.524 4.272-25.215 2.85-7.696 6.788-14.299 11.827-19.807 5.025-5.511 11.062-9.833 18.093-12.965 7.026-3.136 14.819-4.699 23.363-4.699 8.551 0 16.34 1.564 23.364 4.699 7.026 3.134 13.11 7.453 18.239 12.965 5.127 5.506 9.118 12.11 11.97 19.807 2.85 7.691 4.272 16.096 4.272 25.215 0 8.736-1.423 16.908-4.272 24.507-2.844 7.598-6.79 14.107-11.822 19.519l0 0zM704.555 694.208l-392.016 0c-137.646 0-249.235-111.91-249.235-249.334l0-356.195 154.352 106.862 486.898 0c137.647 0 249.236 111.907 249.236 249.332 0 137.705-111.879 249.334-249.236 249.334l0 0zM402.699 338.011l-48.73 0 0 84.347-78.646 0 0-84.347-48.726 0 0 201.746 48.726 0 0-76.37 78.646 0 0 76.37 48.732 0 0-201.746-0.001 0zM646.331 395.996c-5.511-13.209-13.159-24.507-22.938-33.907-9.786-9.407-21.424-16.675-34.908-21.804-13.493-5.126-28.121-7.691-43.886-7.691-15.765 0-30.348 2.564-43.74 7.691-13.393 5.127-24.982 12.396-34.761 21.804-9.79 9.398-17.431 20.704-22.943 33.907-5.511 13.203-8.258 27.783-8.258 43.741 0 16.145 2.747 30.725 8.258 43.744 5.511 13.009 13.155 24.075 22.943 33.194 9.779 9.119 21.369 16.145 34.761 21.088 13.392 4.938 27.973 7.409 43.74 7.409 15.766 0 30.391-2.471 43.886-7.409 13.484-4.939 25.122-11.97 34.908-21.088 9.779-9.119 17.426-20.186 22.938-33.194 5.506-13.019 8.263-27.599 8.263-43.744 0-15.955-2.757-30.537-8.263-43.741l0 0zM821.862 498.154l-56.99 0 0-160.143-48.726 0 0 160.143-56.992 0 0 41.604 162.708 0 0-41.604zM821.862 498.154z"  horiz-adv-x="1024" />

    
    <glyph glyph-name="naozhong" unicode="&#58929;" d="M820.55296 20.992c11.31136-11.2832 22.27328-22.21312 33.21472-33.15456 18.6048-18.5984 37.39136-37.02144 55.75296-55.86048 18.84544-19.32928 10.47168-50.4832-15.264-57.02272-13.1328-3.33312-24.43904 0.61312-34.0096 10.22336-29.83552 29.96224-59.79136 59.79136-89.62048 89.76128-1.78816 1.79456-2.84928 4.31488-3.50848 5.32864-170.93248-96.95872-339.50464-96.94464-509.00608-0.76544-1.1904-1.13536-3.0784-2.84928-4.88704-4.65792-30.23872-30.21056-60.32256-60.59136-90.74816-90.61504-18.80576-18.54976-49.33376-11.17056-56.74112 13.5424-4.07936 13.60256-0.34944 25.40032 9.6576 35.38816 27.4368 27.37536 54.79808 54.81728 82.26048 82.16448 1.81504 1.80864 4.18048 3.0592 6.38464 4.64512C90.21824 122.36672 31.98592 248.10112 36.77824 399.99104c4.20736 133.16736 57.39264 245.43744 155.34592 335.70048C381.10976 909.84448 678.09152 898.80064 856.61184 711.65824 1041.93408 517.38368 1031.56224 201.6832 820.55296 20.992L820.55296 20.992zM104.02304 383.66592c0.02688-224.5888 182.49984-407.80672 406.2592-407.93344 226.77888-0.1216 409.09056 181.26848 409.4528 407.39584 0.36352 225.36064-182.6816 408.66048-407.8528 408.41088C286.59584 791.29088 103.99744 608.68352 104.02304 383.66592L104.02304 383.66592zM104.02304 383.66592M201.06368 894.21056c5.92128-1.12896 12.14464-1.46432 17.71008-3.54816 14.61888-5.46432 23.42912-21.21856 20.95488-36.0448-2.78912-16.65536-15.73376-28.70016-32.25472-28.99584-30.47424-0.5504-58.38592-8.8256-82.67776-27.40224-35.85536-27.42784-53.66784-64.1792-54.83136-109.1712-0.35584-13.99424-6.94912-24.20224-19.4304-30.21696-12.02304-5.79456-23.82592-4.4032-34.5536 3.39328-9.59104 6.9632-14.15424 16.81024-13.8048 28.59776C4.288 762.71232 34.79552 819.33824 94.2912 859.81184 126.3104 881.59488 162.23488 892.02048 201.06368 894.21056L201.06368 894.21056zM201.06368 894.21056M1021.74208 692.91904c0.41088-5.37728-0.2688-14.58432-6.048-22.7776-8.57088-12.14592-23.78112-17.51552-37.90848-13.22112-14.14016 4.30208-23.81184 16.96512-24.02688 32.90624-0.33664 25.49376-6.56768 49.31968-20.27904 70.7392-26.77632 41.85344-65.42976 63.23968-115.01056 64.89344-24.52608 0.81408-40.49536 22.81856-32.67328 45.19424 4.86016 13.89952 17.62432 23.01312 33.10336 22.58944 76.02176-2.07744 134.28224-35.58272 174.33344-100.09856C1011.4048 763.87456 1020.19072 731.48544 1021.74208 692.91904L1021.74208 692.91904zM1021.74208 692.91904M478.08256 485.83424c0.00512 33.82016-0.1088 67.648 0.06016 101.46816 0.08064 15.29856 9.03296 27.63136 22.73152 32.32128 13.48992 4.62464 28.47616 0.32384 37.48352-10.82112 5.73312-7.07712 7.71584-15.30368 7.70176-24.29696-0.06656-59.8912 0.02688-119.78368-0.1408-179.67744-0.01152-5.0816 1.35808-8.66304 5.00864-12.29184 39.99744-39.72864 79.86048-79.58528 119.64288-119.52256 15.22944-15.29856 14.86592-37.96736-0.48512-51.10784-13.30688-11.392-32.48896-11.07712-45.53472 1.19552-9.40288 8.84608-18.35008 18.18112-27.48288 27.3152-35.05024 35.04384-69.93408 70.24384-105.24032 105.0176-9.72032 9.57184-14.12096 20.224-13.90592 33.86112C478.4192 421.472 478.08256 453.65248 478.08256 485.83424L478.08256 485.83424zM478.08256 485.83424"  horiz-adv-x="1024" />

    
    <glyph glyph-name="wodeshoucang" unicode="&#58913;" d="M907.330302 532.641365c-5.970992 16.663518-20.144806 28.958542-42.128493 36.558637-60.45386 20.911262-161.160493 53.362348-187.15861 61.717643C661.1566 652.159436 595.674213 734.386182 554.584376 783.642003c-20.060895 24.026206-50.553373 31.05939-75.901691 17.535375-8.590656-4.578272-16.272615-11.280928-22.798239-19.966751-39.048341-51.757804-102.016465-138.468678-117.853152-160.347988-25.65531-9.982352-128.497583-50.105165-187.701986-74.462922-17.878183-7.245008-30.210046-21.972431-34.752502-40.475853-4.212952-17.252943-0.908696-35.425837 9.038864-49.845245 36.334533-52.701293 99.633185-140.876518 115.529223-162.967652 1.297552-27.16571 6.561439-135.63719 10.868535-200.045105 1.840928-27.92091 14.703887-42.269709 25.171286-49.420573 13.947663-9.487072 31.968086-11.847839 49.421596-6.443759 60.666708 18.739806 140.510174 54.118572 167.226652 63.016219 26.692942-7.175423 158.306492-35.283598 220.177632-50.483788 18.491143-4.554736 34.409694-3.351328 47.308469 3.517103 0 0 0 0 0.023536 0.022513 12.307304 6.561439 27.129894 21.147646 27.931143 53.386908 1.533936 64.337307 1.688455 174.909635 1.688455 202.452945 14.785751 22.562878 73.069179 111.60996 107.33868 166.743652C913.230686 501.511367 911.543254 520.888693 907.330302 532.641365zM860.634794 498.348328c-39.012526-62.756299-109.544929-170.09498-110.253056-171.179684-2.2656-3.470031-3.481288-7.505951-3.493567-11.683087 0.01228-1.321088 0.070608-134.715191-1.675152-207.739345-0.212848-8.874111-2.207271-15.175631-5.309936-16.850783-1.157359-0.590448-5.688559-2.361791-16.591887 0.305969-70.485331 17.324574-224.284159 51.593052-225.570455 51.92358-4.118807 1.131777-8.461719 1.014096-12.508895-0.330528-1.286296-0.448208-103.539144-43.496653-172.467003-64.785515-3.669576-1.1328-8.792247-1.511423-12.236696 0.848321-3.670599 2.501984-5.994528 8.544607-6.572696 16.97051-4.874007 73.258491-11.022031 204.198705-11.092639 205.496258-0.177032 4.130064-1.569752 8.095375-3.987824 11.446703-0.778736 1.086751-77.400834 107.457384-118.739335 167.404708-2.950192 4.319375-3.987824 10.290367-2.690272 15.648398 0.76748 3.185552 2.737344 7.529487 9.157567 10.974959 0.094144 0.047072 0.177032 0.094144 0.294712 0.141216 67.252707 27.684526 191.549617 75.949786 192.787818 76.42153 3.89368 1.486864 7.210215 4.082992 9.617032 7.43432 0.778736 1.038656 76.598562 105.85284 121.074519 164.785044 2.761903 3.680832 5.699816 6.348592 8.745175 7.953136 10.502192 5.616928 19.718087-4.012384 22.303982-7.104815 46.882773-56.218396 126.065184-156.028613 126.856199-157.043732 2.65548-3.326768 6.244214-5.828752 10.348696-7.127328 1.215688-0.400113 123.435287-39.531342 192.45729-63.392796 8.637728-2.973728 14.337543-6.7968 15.670911-10.478655C868.210329 514.35079 865.909937 506.844839 860.634794 498.348328z"  horiz-adv-x="1024" />

    
    <glyph glyph-name="huiyuan" unicode="&#58945;" d="M488.510518 365.12921c73.438593 35.773761 124.139322 110.952998 124.139322 198.077288 0 121.746832-98.697883 220.444714-220.442668 220.444714-121.749902 0-220.443691-98.697883-220.443691-220.444714 0-87.12429 50.700729-162.303526 124.135228-198.077288C168.086741 326.274274 73.47799 212.100932 62.959426 74.27796c-0.917906-2.203178-1.422396-4.544503-1.422396-7.073092 0-10.148128 8.224312-18.371416 18.368346-18.371416 10.149151 0 18.373463 8.223289 18.373463 18.371416l0.916882 0c9.55154 153.714917 136.860041 275.55487 293.006334 275.55487 156.101267 0 283.457864-121.839953 293.006334-275.55487l0.916882 0c0-10.197246 8.223289-18.371416 18.373463-18.371416 10.151197 0 18.368346 8.223289 18.368346 18.371416 0 2.52859-0.550539 4.820796-1.424442 7.023974C710.930213 212.100932 616.322485 326.274274 488.510518 365.12921L488.510518 365.12921 488.510518 365.12921zM208.501196 563.206498c0 101.403504 82.250282 183.701882 183.701882 183.701882 101.406574 0 183.659927-82.298378 183.659927-183.701882 0-101.496625-82.253352-183.751001-183.659927-183.751001C290.751478 379.455497 208.501196 461.709873 208.501196 563.206498L208.501196 563.206498 208.501196 563.206498zM886.780267 74.27796C876.264772 212.100932 781.656021 326.274274 653.891126 365.12921c73.391521 35.773761 124.094296 110.952998 124.094296 198.077288 0 121.704876-98.652857 220.444714-220.399689 220.444714-10.150174 0-20.024056-0.917906-29.712719-2.25332 16.255219-10.148128 31.504528-21.903869 45.007053-35.31225 94.287433-7.760754 168.407548-86.668918 168.407548-182.879144 0-95.943143-73.615625-174.517709-167.447686-182.783976 1.287319-3.079128 2.022053-6.5246 2.022053-10.110265 0-1.237177-0.500397-2.289136-0.689708-3.397377 16.257266-9.410324 31.918967-19.747763 46.61876-31.502481 125.467573-28.063149 220.580814-136.25936 228.708935-268.208555l0.918929 0c0-10.197246 8.268314-18.371416 18.370393-18.371416 10.196223 0 18.370393 8.223289 18.370393 18.371416C888.202663 69.733457 887.653147 72.074781 886.780267 74.27796L886.780267 74.27796 886.780267 74.27796zM886.780267 74.27796"  horiz-adv-x="1024" />

    
    <glyph glyph-name="xuangoushouji" unicode="&#58881;" d="M392.533333 234.666667 320 234.666667 320 640l264.533333 0c0 0 0-8.533333 0-8.533333l21.333333 0L605.866667 699.733333c0 12.8-4.266667 21.333333-17.066667 21.333333L315.733333 721.066667C302.933333 721.066667 298.666667 712.533333 298.666667 699.733333l0-537.6c0-12.8 4.266667-21.333333 17.066667-21.333333l76.8 0L392.533333 234.666667zM725.333333 593.066667l-273.066667 0c-12.8 0-17.066667-12.8-17.066667-21.333333l0-537.6c0-12.8 4.266667-21.333333 17.066667-21.333333L725.333333 12.8c12.8 0 17.066667 12.8 17.066667 21.333333L742.4 571.733333C742.4 580.266667 733.866667 593.066667 725.333333 593.066667zM618.666667 38.4 554.666667 38.4c-12.8 0-21.333333 8.533333-21.333333 21.333333s8.533333 21.333333 21.333333 21.333333l64 0c12.8 0 21.333333-8.533333 21.333333-21.333333S631.466667 38.4 618.666667 38.4zM721.066667 102.4l-264.533333 0L456.533333 512l264.533333 0L721.066667 102.4z"  horiz-adv-x="1024" />

    
    <glyph glyph-name="jinrong" unicode="&#59195;" d="M751.786604 296.854411c-31.446734 84.765684-118.337111 177.203233-136.789401 195.050655l0.002552 0.007657c-0.220764 0.210555-0.449184 0.430043-0.687814 0.638046-2.151491 1.977943-4.544163 4.059249-7.116765 6.220948-1.967734 2.154043-3.75171 3.952057-5.496128 5.715616 5.63905-4.72154 12.777509-7.676969 20.670137-7.676969 12.681802 0 23.554105 7.410266 28.930281 18.103917 18.865743-3.842313 68.28368-14.705684 74.781541-42.065095 1.536415-6.486375 7.267344-10.846782 13.587827-10.846782 1.088506 0 2.182117 0.125057 3.282109 0.399417 7.516182 1.818431 12.142015 9.454565 10.336345 17.048588-8.128706 34.227338-45.608802 50.085333-74.040131 57.946059 13.474255 12.771128 25.5346 28.927728 26.970203 40.21859 0.962173 7.527666-4.21876 13.987244-11.625198 15.248023-7.439616 1.231429-14.565314-4.092427-16.117041-11.521834-1.53131-7.334977-19.062262-25.501422-29.362876-32.912964-5.876403 8.570234-15.64744 14.206732-26.741783 14.206732-9.777417 0-18.444633-4.443352-24.414191-11.339353 3.402061 5.128614 7.047856 8.687634 8.905846 10.276368 1.330964 1.138274 3.786165 3.07921 7.013401 5.650535 35.527676 28.290959 69.374739 51.987986 76.375379 73.849993 1.940936 6.046124 3.299974 9.953517 4.198343 12.517186 1.382008 3.952057 5.44636 15.581083-5.022698 21.001921-2.085134 2.257407-5.864919 4.974206-11.916147 4.974206-4.699847 0-9.480087-1.630846-15.546628-3.696838-10.056881-3.431411-24.053057-7.365603-33.089064-3.499044-7.60806 3.255311-14.857539 8.470698-22.534508 13.991072-14.282021 10.262331-30.470524 21.899014-53.09691 23.538792-17.999277 1.30289-32.609254-4.888708-46.57608-10.846782-12.443173-5.308543-24.192151-10.319756-40.002931-10.319756l-0.061252 0c-15.380736 0.324127-32.139652 2.581534-46.924453 4.591379-13.919611 1.884788-25.936569 3.510529-35.638696 3.510529-4.059249 0-7.52001-0.290949-9.749343-0.80011-1.481543 1.144654-3.714704 3.940572-6.657372 8.3265-2.286757 3.413546-5.747518 8.57151-12.868111 8.57151-4.029898 0-7.906666-1.952421-10.341449-5.196246-4.250662-5.683714-3.97375-6.658648 3.040927-31.819353l0.997904-3.580714c0.201623-0.814147 0.445356-2.277824 0.786073-4.235349 2.498588-14.163345 8.348194-41.834122 24.059438-59.026909 2.150215-2.785709 4.578618-5.818979 7.200987-9.065357 12.001645-14.930276 27.483192-34.247756 35.153781-54.836223-3.79765-0.786073-7.558293-1.410082-11.371255-2.276548-6.931731-1.570869-11.285757-8.531951-9.727649-15.533867 1.558108-6.999364 8.43752-11.359771 15.362871-9.823356 3.499044 0.792453 6.976395 1.374351 10.469058 2.092791-0.193966-6.79519-1.675509-13.592931-4.838941-20.28731-1.99836-2.890348-3.954609-5.161792-5.80239-6.746698-65.065376-55.656751-111.327538-125.150166-137.507841-195.724431-25.928912-69.839236-27.749896-98.449218-27.393866-121.768522 0.487467-31.847427 1.798014-116.438286 150.968058-118.675275 133.073421-1.989427 149.942081-1.453469 232.687711-0.516817 148.900789 1.63595 150.18071 87.044784 150.664349 119.202301C779.519911 198.424334 777.683614 227.022831 751.786604 296.854411L751.786604 296.854411zM400.4619 610.907021c-2.498588 3.111112-4.828732 6.007841-7.559569 9.474983-10.446089 11.474619-15.606605 37.099821-17.842318 49.518748 1.047671 0.079118 2.095343 0.239905 3.126425 0.470878 0.914958 0.208003 2.674689 0.463221 5.857262 0.463221 7.985783 0 19.757732-1.593839 32.217494-3.277004 15.458578-2.100447 32.983149-4.465046 49.821182-4.819799l1.795461-0.011485c19.766664 0 35.186959 6.576978 48.7901 12.371711 12.325772 5.266431 22.67743 9.727649 34.741603 8.870115 15.435608-1.11658 27.382381-9.703403 40.024624-18.794282 8.464318-6.084406 17.217033-12.371711 27.395142-16.730842 14.701855-6.312827 34.215854-2.895453 47.198813 1.393492-0.08167-0.247562-0.160788-0.492571-0.242457-0.746514-3.687906-11.525663-26.508258-28.546177-67.825563-61.451484-3.553916-2.8342-6.255403-4.988243-7.710148-6.233709-4.278736-3.654727-14.761832-11.760463-20.903662-27.452566-37.617915 5.969558-81.672437 5.304714-127.95374-1.91031C432.639835 578.504494 413.968058 594.121307 400.4619 610.907021L400.4619 610.907021zM595.342835 511.359088c-2.286757 2.817611-3.636862 5.344273-4.310639 9.079394 0.089326-0.025522 0.179929-0.048491 0.269255-0.075289C592.248312 517.151269 593.529508 514.080992 595.342835 511.359088L595.342835 511.359088zM753.459561 175.503171c-0.484915-32.240463-1.382008-89.94917-125.228008-91.320968-72.691302-0.814147-81.937864-1.740589-232.034352 0.524474-124.227552 1.849057-125.138681 58.915889-125.627424 90.796495-0.322851 20.828373 1.408806 46.65137 25.754088 112.229735 24.615814 66.372095 68.370455 132.264379 130.041427 185.020572 3.793821 3.243826 7.484279 7.523838 10.976943 12.731569 0.319023 0.474706 0.612524 0.973658 0.86519 1.490475 6.227329 12.652452 8.484735 25.168362 8.032999 37.286131 42.875414 6.525934 84.057453 7.179293 118.593606 1.837572 0.017865-0.996628-0.126333-1.898825-0.061252-2.912042 1.237809-19.40553 9.215936-27.447462 17.659837-35.950062 1.943488-1.970286 4.079666-4.11412 6.368975-6.65482 0.409626-0.451737 0.843497-0.869019 1.306718-1.255674 2.60578-2.182117 5.011213-4.272356 6.939388-6.035915 10.175557-9.813147 100.314864-103.75138 130.660331-185.556531C752.034166 222.149436 753.764547 196.327715 753.459561 175.503171L753.459561 175.503171zM518.344723 299.590352l0 72.252326c16.254859-3.367607 30.899291-11.112209 42.69038-24.224054l16.31994 20.121418c-14.913687 15.693379-34.44555 26.193063-59.01032 29.452202l0 30.858456-14.200351 0 0-0.276912-12.452105 0 0-29.347563c-39.168366-2.97457-66.435899-27.049321-66.435899-61.032926 0-40.581 33.143936-51.797848 66.435899-61.036754l0-80.166649c-25.787266 2.97457-44.566235 16.165533-56.971125 31.014139l-16.316112-21.115494c16.316112-18.808319 40.318125-32.664126 73.287237-34.63824L491.692266 141.829656l21.454934 0 0 0.230973 5.197523 0L518.344723 172.213405c46.466336 5.41063 63.907961 34.975128 63.907961 63.564692C582.252684 276.77638 550.36187 290.15748 518.344723 299.590352L518.344723 299.590352zM491.692266 306.381713c-22.196343 6.597395-38.363152 14.515546-38.363152 32.66285 0 19.133723 15.190599 32.990805 38.363152 34.63824L491.692266 306.381713 491.692266 306.381713zM518.344723 196.802421l0 72.587939c20.37536-6.726281 35.837766-15.815884 35.837766-35.588928C554.179937 218.926028 545.152863 201.604355 518.344723 196.802421L518.344723 196.802421zM518.344723 196.802421M512.006374 896C229.23333 896 0 666.761566 0 383.982141 0 101.223134 229.23333-127.999987 512.016583-127.999987c282.764111 0 512.006374 229.223121 512.006374 511.982128C1024.012748 666.761566 794.780694 896 512.006374 896zM512.006374-103.040905c-268.981042 0-487.033255 218.052212-487.033255 487.017941 0 268.981042 218.052212 487.033255 487.033255 487.033255s487.033255-218.052212 487.033255-487.033255C999.039629 115.011308 780.997625-103.040905 512.006374-103.040905z"  horiz-adv-x="1025" />

    
    <glyph glyph-name="choujiang" unicode="&#58949;" d="M511.319501 798.609902c-228.985228 0-414.610926-185.626721-414.610926-414.609902 0-228.982158 185.626721-414.608879 414.610926-414.608879 228.981135 0 414.607856 185.626721 414.607856 414.608879C925.926334 612.983181 740.29859 798.609902 511.319501 798.609902zM808.469202 599.479633 625.470331 474.337471l50.550303 154.63487-133.060505-119.015627 70.359464 226.709395C692.737364 713.73791 761.081938 664.716426 808.469202 599.479633zM541.836539 508.950803c-8.411577 2.047636-17.148565 3.269463-26.116821 3.573385 8.997931-0.268106 17.758456-1.473561 26.200732-3.498684L541.836539 508.950803zM144.284127 384c0 202.711841 164.320463 367.031281 367.035374 367.031281 4.51892 0 9.017374-0.084934 13.496385-0.24764-4.308119 0.149403-8.634658 0.227174-12.979616 0.227174-34.599006 0-68.079538-4.790096-99.815333-13.738909l70.715575-227.859591c-26.826995-6.088672-50.465368-20.565385-68.019163-40.527019L217.72886 603.597417c-40.916898-54.707996-66.921155-121.216759-72.002894-193.499016l239.744269 0.487094c-1.803066-8.578376-2.75781-17.469883-2.75781-26.584472 0-27.804253 8.826016-53.546543 23.826662-74.582649l-193.783495-138.246621c40.876989-57.345056 97.835236-102.43602 164.29488-128.686894l81.637322 224.142943c14.81952-6.655584 31.128975-10.580986 48.287773-11.150968 1.612731-0.060375 3.229554-0.101307 4.857635-0.101307 20.38119 0 39.652092 4.749164 56.776098 13.190417l-0.093121 0.231267c20.594037 10.245342 38.051641 25.847691 50.54928 44.986587l0.369414-0.245593c13.274328 20.234857 21.001313 44.432978 21.001313 70.440305 0 9.129938-0.957815 18.034748-2.765997 26.625404l-0.529049 0.001023c-3.341095 15.867386-9.590426 30.66337-18.191314 43.786249l0.162706 0.499373c8.776897-13.248745 15.172561-28.210505 18.558681-44.286646l239.754502-0.488117c0.606821-8.627495 0.921999-17.334807 0.921999-26.116821 0-74.66042-22.292726-144.110165-60.58075-202.063065L619.435894 313.538205c-12.573363-19.168572-30.126134-34.770921-50.826596-44.972261l89.155553-221.216287c-44.861744-19.542078-94.387717-30.381961-146.446373-30.381961C308.60459 16.968719 144.284127 181.287135 144.284127 384zM535.26282 750.260731c-0.335644 0.021489-0.672312 0.041956-1.007957 0.062422C534.590508 750.301663 534.927175 750.282221 535.26282 750.260731zM530.532075 750.534977c-1.821485 0.091074-3.643993 0.176009-5.472642 0.2415C526.888082 750.708939 528.711614 750.629121 530.532075 750.534977z"  horiz-adv-x="1024" />

    
    <glyph glyph-name="gengduojingcai" unicode="&#59001;" d="M307.2 459.2c-32 0-56-27.2-56-57.6 0-32 20.8-56 56-57.6 33.6 0 57.6 22.4 57.6 57.6C364.8 432 340.8 459.2 307.2 459.2zM513.6 459.2c-32 0-56-27.2-56-57.6 0-32 20.8-56 56-57.6 33.6 0 57.6 22.4 57.6 57.6C571.2 432 545.6 459.2 513.6 459.2zM716.8 344c33.6 0 57.6 22.4 57.6 57.6 0 32-24 57.6-57.6 57.6-32 0-56-27.2-56-57.6C660.8 369.6 681.6 345.6 716.8 344zM982.4 748.8 619.2 748.8c-1.6 0-1.6 0-3.2 0-3.2 0-57.6-4.8-102.4-44.8-44.8 40-99.2 44.8-102.4 44.8-1.6 0-1.6 0-3.2 0L43.2 748.8c-22.4 0-41.6-19.2-41.6-41.6l0-617.6c0-22.4 19.2-41.6 41.6-41.6l358.4 0c43.2-3.2 67.2-17.6 78.4-25.6 1.6-1.6 1.6-3.2 3.2-3.2 8-8 19.2-12.8 28.8-12.8 0 0 0 0 1.6 0 0 0 0 0 1.6 0 11.2 0 20.8 4.8 28.8 12.8 1.6 1.6 1.6 3.2 3.2 3.2 9.6 6.4 35.2 20.8 78.4 25.6l358.4 0c22.4 0 41.6 19.2 41.6 41.6L1025.6 707.2C1024 729.6 1004.8 748.8 982.4 748.8zM940.8 131.2l-320 0c-1.6 0-1.6 0-3.2 0-48-3.2-83.2-17.6-105.6-30.4-22.4 12.8-57.6 27.2-105.6 30.4-1.6 0-1.6 0-3.2 0l-320 0L83.2 665.6l320 0c6.4-1.6 46.4-8 67.2-41.6 3.2-11.2 11.2-22.4 22.4-27.2 6.4-3.2 12.8-3.2 19.2-3.2 6.4 0 12.8 1.6 19.2 3.2 11.2 4.8 19.2 16 22.4 27.2 20.8 33.6 60.8 40 67.2 41.6l320 0L940.8 131.2z"  horiz-adv-x="1026" />

    
    <glyph glyph-name="piaowu" unicode="&#58967;" d="M243.2 361.6h48v-60.8H243.2zM940.8 304c-12.8 0-22.4 3.2-28.8 9.6v-224c0-16-12.8-25.6-28.8-25.6h-144v-48h163.2c28.8 0 57.6 22.4 57.6 57.6v236.8c-6.4-3.2-12.8-6.4-19.2-6.4zM243.2 240h48v-60.8H243.2zM243.2 480h48v-60.8H243.2zM243.2 601.6h48v-60.8H243.2zM742.4 38.4m-25.6 0a25.6 25.6 0 1 1 51.2 0 25.6 25.6 0 1 1-51.2 0ZM630.4 64c-12.8 0-25.6-9.6-25.6-25.6 0-12.8 9.6-25.6 25.6-25.6 12.8 0 22.4 9.6 22.4 25.6 0 12.8-9.6 25.6-22.4 25.6zM960 489.6V694.4c0 28.8-22.4 57.6-57.6 57.6H121.6c-32 0-57.6-22.4-57.6-57.6v-211.2c48 0 86.4-38.4 86.4-86.4S112 310.4 64 310.4v-240c0-28.8 22.4-57.6 57.6-57.6h435.2V64H291.2v64H243.2v-64H144c-16 0-28.8 3.2-28.8 19.2v188.8c51.2 19.2 86.4 67.2 86.4 124.8s-35.2 105.6-86.4 124.8V678.4c-3.2 16 9.6 25.6 22.4 25.6h105.6v-41.6h48V704h595.2c16 0 28.8-9.6 28.8-25.6v-150.4c-51.2-19.2-86.4-67.2-86.4-124.8 0-73.6 60.8-134.4 134.4-134.4v48c-44.8 3.2-83.2 41.6-83.2 86.4s35.2 83.2 80 86.4zM755.2 496H400c-12.8 0-22.4 9.6-22.4 22.4 0 12.8 9.6 22.4 22.4 22.4h355.2c12.8 0 25.6-9.6 25.6-22.4 0-12.8-12.8-22.4-25.6-22.4zM755.2 259.2H400c-12.8 0-22.4 9.6-22.4 22.4 0 12.8 9.6 25.6 22.4 25.6h355.2c12.8 0 25.6-9.6 25.6-25.6 0-9.6-12.8-22.4-25.6-22.4zM556.8 38.4m-25.6 0a25.6 25.6 0 1 1 51.2 0 25.6 25.6 0 1 1-51.2 0Z"  horiz-adv-x="1024" />

    
    <glyph glyph-name="zhaofuwu" unicode="&#58969;" d="M54.4 467.2c0-12.8 9.6-22.4 22.4-22.4 12.8 0 22.4 9.6 22.4 22.4C144 656 307.2 796.8 505.6 796.8c182.4 0 339.2-121.6 393.6-288 0-12.8 9.6-22.4 22.4-22.4 12.8 0 25.6 9.6 25.6 25.6 0 3.2 0 6.4-3.2 9.6-57.6 185.6-230.4 323.2-438.4 323.2-220.8 0-403.2-156.8-448-364.8 0-3.2-3.2-6.4-3.2-12.8 0 3.2 0 3.2 0 0zM960 320h-124.8v-57.6h64c-16-48-38.4-89.6-67.2-131.2-3.2-3.2-6.4-9.6-6.4-16 0-12.8 9.6-25.6 25.6-25.6 9.6 0 16 6.4 19.2 12.8 35.2 44.8 64 99.2 80 156.8h25.6V320H960zM729.6 35.2c-6.4 0-9.6-3.2-16-6.4-60.8-35.2-131.2-57.6-208-57.6H480c-9.6 0-22.4 3.2-32 3.2C259.2 3.2 112 160 96 352c0 12.8-9.6 25.6-25.6 25.6-12.8 0-25.6-9.6-25.6-25.6C64 131.2 233.6-44.8 448-70.4c9.6 0 22.4-3.2 32-3.2h25.6c83.2 0 163.2 22.4 230.4 64 9.6 3.2 16 12.8 16 22.4 0 9.6-9.6 22.4-22.4 22.4zM784 48m-25.6 0a25.6 25.6 0 1 1 51.2 0 25.6 25.6 0 1 1-51.2 0ZM726.4 505.6c3.2-9.6 12.8-19.2 22.4-19.2 12.8 0 25.6 9.6 25.6 25.6 0 3.2 0 9.6-3.2 12.8-51.2 92.8-147.2 156.8-262.4 156.8-131.2 0-240-83.2-281.6-198.4-3.2-3.2-3.2-6.4-3.2-9.6 0-12.8 9.6-25.6 25.6-25.6 9.6 0 19.2 6.4 22.4 16 35.2 96 128 166.4 236.8 166.4 89.6 3.2 172.8-48 217.6-124.8zM505.6 131.2c-128 0-233.6 96-249.6 217.6 0 12.8-9.6 22.4-22.4 22.4-12.8 0-22.4-9.6-22.4-22.4 16-150.4 144-265.6 297.6-265.6 144 0 262.4 102.4 291.2 236.8h-118.4v-57.6h48c-44.8-76.8-128-131.2-224-131.2zM944 441.6h-233.6c-16 0-32-16-32-32v-22.4h297.6v22.4c0 16-16 32-32 32z"  horiz-adv-x="1024" />

    
    <glyph glyph-name="jiagebaohu" unicode="&#58882;" d="M516.8-128C363.2-128 80 92.8 80 312V745.6h43.2c1.6 0 97.6 1.6 198.4 41.6 102.4 41.6 168 88 169.6 88L516.8 896l25.6-19.2s67.2-48 169.6-88c99.2-40 187.2-41.6 188.8-41.6H944v-433.6c0-220.8-275.2-441.6-427.2-441.6z m-368 790.4V312c0-168 265.6-361.6 368-361.6 100.8 0 358.4 193.6 358.4 361.6V662.4c-43.2 4.8-123.2 16-195.2 44.8-75.2 30.4-131.2 62.4-161.6 81.6-30.4-19.2-88-52.8-161.6-81.6-75.2-28.8-164.8-40-208-44.8zM472 254.4H345.6c-9.6 0-9.6 8-9.6 8V296s0 8 9.6 8H472c4.8 0 8 3.2 8 9.6v28.8c0 6.4-6.4 9.6-8 9.6H345.6c-9.6 0-9.6 8-9.6 8v32s0 8 9.6 8H456c4.8 0 6.4 3.2 4.8 6.4-1.6 1.6-89.6 88-102.4 102.4-4.8 8 0 11.2 0 11.2l28.8 22.4s4.8 4.8 11.2-3.2c1.6-3.2 97.6-94.4 99.2-96 8-8 11.2-11.2 14.4-11.2 4.8 0 9.6 1.6 16 11.2 0 0 92.8 96 96 97.6 3.2 3.2 8 3.2 8 3.2l28.8-24s4.8-4.8 1.6-8c-1.6-1.6-99.2-104-100.8-104-1.6-3.2 0-6.4 4.8-6.4h110.4c6.4 0 9.6-6.4 9.6-9.6v-28.8c0-4.8-1.6-9.6-9.6-9.6H552c-8 0-9.6-8-9.6-8v-30.4s0-9.6 9.6-9.6h123.2c8 0 11.2-3.2 11.2-9.6v-28.8c0-6.4-3.2-11.2-11.2-11.2H550.4c-6.4 0-8-1.6-8-9.6v-89.6s1.6-11.2-11.2-11.2h-41.6c-6.4 0-11.2 4.8-11.2 11.2v92.8c1.6 6.4-6.4 4.8-6.4 4.8z"  horiz-adv-x="1024" />

    
    <glyph glyph-name="icon05" unicode="&#58889;" d="M516.63 88.137c5.011 0 10.105 0.311 15.233 0.921 49.156 5.897 90.89 40.255 106.299 87.604 0.229 0.677 0.361 1.457 0.361 2.267 0 2.93-1.727 5.456-4.219 6.616-3.401 1.574-7.462 0.23-9.357-2.945-0.176-0.317-19.705-31.858-95.743-42.132-11.378-1.526-22.457-2.324-32.949-2.324-53.276 0.035-77.018 20.116-77.229 20.298-1.28 1.135-2.974 1.829-4.831 1.829-1.79 0-3.429-0.645-4.698-1.715-1.59-1.343-2.6-3.352-2.6-5.597 0-1.42 0.404-2.745 1.103-3.867 23.167-37.571 64.783-60.955 108.629-60.955M925.473 559.363c-0.669 0-1.285-0.123-1.919-0.123-44.556 192.876-214.787 336.76-418.883 336.76-209.706 0-383.851-151.829-422.451-352.686-37.526-6.754-66.086-39.738-66.086-79.629v-159.651c0-44.75 35.883-81.032 80.187-81.032 24.986 0 47.050 11.795 61.726 29.927 35.455-93.771 107.643-169.398 198.997-209.289 0.217 0.475 1.948 3.838 4.025 6.514 1.444 1.854 3.051 3.386 4.43 3.386 1.438 0 2.752-0.522 3.879-1.32-21.148 15.744-97.521 96.658-114.057 209.565-7.265 49.708 29.962 98.489 73.321 106.557 69.601 12.962 138.832 27.726 208.432 40.442 44.245 8.069 74.483 32.339 92.973 72.746 4.331 9.448 10.592 28.548 13.455 56.092 0.763 4.096 4.119 7.241 8.426 7.241 2.869 0 5.305-1.467 6.93-3.574l1.919 1.191c27.433-39.826 81.836-128.011 89.646-221.002 8.966-106.311 3.967-179.122-77.411-253.616-0.306-0.332-0.685-0.591-1.112-0.752-0.337-0.748-1.023-2.352-1.024-4.116 0-2.284 1.221-4.244 2.993-5.435 0.669-0.276 1.344-0.634 2.013-0.915 0.552-0.123 1.068-0.305 1.614-0.305 0.557 0 1.045 0.182 1.532 0.305 1.156 0.61 2.259 1.32 3.38 1.925 93.084 52.063 160.576 140.448 183.706 245.474 4-52.578 24.618-65.832 48.428-68.915-40.208-155.71-179.955-253.771-353.080-268.658-10.381 25.737-35.912 44.016-65.91 44.016-39.175 0-70.939-31.024-70.939-69.272 0-38.236 31.764-69.231 70.939-69.231 31.582 0 58.047 20.298 67.224 48.171 200.405 16.296 361.054 135.416 394.59 320.5 29.628 12.376 50.436 41.446 50.436 75.375v161.547c-0.012 45.166-36.869 81.789-82.328 81.789M851.536 512.959c-52.267 141.59-187.712 242.737-347.047 242.737-158.66 0-293.618-100.285-346.384-240.959-2.623 3.21-5.704 5.956-8.726 8.737 29.874 171.423 177.402 301.757 355.291 301.757 177.032 0 324.103-129.050 354.951-299.281-3.046-4.096-5.856-8.374-8.086-12.992M357.049 43.634l-0.012 0.006c-0.029-0.076-0.029-0.088 0.012-0.006z"  horiz-adv-x="1024" />

    
    <glyph glyph-name="weibiaoti--" unicode="&#59395;" d="M310.528-127.872c-70.784 142.016-33.088 223.36 21.312 300.032 59.52 83.968 74.944 167.040 74.944 167.040s46.848-58.688 28.096-150.528c82.752 88.768 98.368 230.272 85.824 284.48 187.008-126.016 266.944-398.848 159.296-601.088 573.056 312.512 142.528 780.16 67.584 832.832 24.96-52.672 29.76-141.824-20.8-185.152-85.44 312.256-296.64 376.256-296.64 376.256 24.96-161.024-90.56-337.152-201.984-468.736-3.904 64.192-8.064 108.544-43.072 169.984-7.808-116.672-100.288-211.776-125.44-328.64-33.92-158.272 25.472-274.176 250.816-396.608l0.064 0.128z"  horiz-adv-x="1024" />

    
    <glyph glyph-name="dijiabaozhang" unicode="&#59008;" d="M452.81651 511.092199h50.83688c7.262411 0 9.683215-2.420804 9.683215-4.841608s-2.420804-4.841608-9.683215-4.841608h-50.83688v-19.36643c0-2.420804 0-4.841608-2.420803-4.841607s-4.841608 0-9.683216-2.420804h-9.683215c-2.420804 0-2.420804 2.420804-2.420803 4.841607v19.366431h-48.416076c-7.262411 0-9.683215 2.420804-9.683215 4.841607s2.420804 4.841608 9.683215 4.841608h50.836879v12.104019h-48.416075c-7.262411 0-9.683215 2.420804-9.683215 4.841607s2.420804 4.841608 9.683215 4.841608h36.312056l-21.787234 14.524823-21.787234 14.524822c-4.841608 2.420804-2.420804 4.841608 2.420804 7.262412h7.262411c2.420804 0 4.841608 0 7.262412-2.420804l50.836879-36.312057h4.841608c7.262411 4.841608 16.945626 12.104019 24.208038 19.36643 7.262411 7.262411 16.945626 12.104019 24.208037 19.366431 2.420804 2.420804 4.841608 2.420804 7.262412 2.420803h7.262411c2.420804 0 4.841608-2.420804 4.841608-2.420803s0-2.420804-2.420804-4.841608L469.762137 530.458629h36.312057c7.262411 0 9.683215-2.420804 9.683215-4.841608s-2.420804-4.841608-9.683215-4.841607h-50.83688l-2.420804-9.683215zM510.915801-128c-19.36643 0-36.312057 4.841608-53.257683 14.524823L106.641569 87.451537C72.750317 106.817967 53.383886 143.130024 53.383886 179.44208V586.137116c0 38.732861 19.36643 72.624113 53.257683 91.990544L457.658118 881.475177c31.470449 19.36643 72.624113 19.36643 106.515366 0L915.190033 675.706856c31.470449-19.36643 53.257683-53.257683 53.257683-91.990544v-406.695035c0-38.732861-19.36643-72.624113-53.257683-91.990544l-351.016549-203.347518c-16.945626-4.841608-36.312057-9.683215-53.257683-9.683215z m0 948.955083c-4.841608 0-12.104019-2.420804-16.945626-4.841608L142.953626 612.765957c-9.683215-4.841608-16.945626-14.524823-16.945626-26.628841v-406.695036c0-12.104019 7.262411-21.787234 16.945626-29.049645l351.016549-203.347518c9.683215-4.841608 24.208038-4.841608 33.891253 0l351.016548 203.347518c9.683215 4.841608 16.945626 16.945626 16.945627 29.049645V586.137116c0 12.104019-7.262411 21.787234-16.945627 29.049645L527.861428 816.113475c-4.841608 2.420804-12.104019 4.841608-16.945627 4.841608zM806.253863 266.591017c-4.841608 9.683215-12.104019 16.945626-24.208038 16.945626h-55.678487v130.723404c0 14.524823-12.104019 26.628842-26.628842 26.628842h-84.728132c-4.841608 12.104019-12.104019 21.787234-24.208038 31.470449 16.945626 14.524823 26.628842 31.470449 26.628842 50.836879 0 53.257683-79.886525 96.832151-179.13948 96.832152s-179.13948-43.574468-179.13948-96.832152c0-19.36643 9.683215-36.312057 26.628841-50.836879-14.524823-14.524823-24.208038-31.470449-24.208037-50.836879S271.256227 385.210402 288.201853 370.685579c-16.945626-14.524823-26.628842-31.470449-26.628841-50.836879 0-53.257683 79.886525-96.832151 179.139479-96.832152 12.104019 0 26.628842 0 38.732861 2.420804l135.565012-123.460993c4.841608-4.841608 9.683215-7.262411 16.945626-7.262411s12.104019 2.420804 16.945627 7.262411l150.089834 137.985816c9.683215 4.841608 12.104019 16.945626 7.262412 26.628842zM440.712491 590.978723c89.56974 0 150.089835-36.312057 150.089835-67.782506 0-31.470449-62.940898-67.782506-150.089835-67.782505s-150.089835 36.312057-150.089834 67.782505c0 31.470449 60.520095 67.782506 150.089834 67.782506z m0-164.614657c50.836879 0 96.832151 9.683215 128.302601 29.049646 7.262411-4.841608 12.104019-9.683215 14.524823-14.524823H561.752681c-14.524823 0-26.628842-12.104019-26.628842-26.628842v-43.574468c-26.628842-9.683215-58.099291-16.945626-96.832151-16.945626-89.56974 0-150.089835 36.312057-150.089835 67.782506 0 12.104019 7.262411 24.208038 21.787234 33.891253 33.891253-19.36643 79.886525-29.049645 130.723404-29.049646z m-150.089834-106.515366c0 12.104019 7.262411 24.208038 21.787234 33.891253 31.470449-16.945626 77.465721-29.049645 128.3026-29.049646 36.312057 0 67.782506 4.841608 96.832152 14.524823v-55.678487h-55.678487c-9.683215 0-19.36643-7.262411-24.208038-16.945626-2.420804-4.841608-2.420804-9.683215-2.420804-14.524823h-16.945626c-87.148936 0-147.669031 36.312057-147.669031 67.782506z m341.333333-196.085107L489.128567 254.486998h50.83688c14.524823 0 26.628842 12.104019 26.628841 26.628841v130.723404h133.144208v-130.723404c0-14.524823 12.104019-26.628842 26.628842-26.628841h50.836879l-145.248227-130.723405z"  horiz-adv-x="1024" />

    
    <glyph glyph-name="pinzhibaozhang" unicode="&#59009;" d="M510.915801-128c-19.36643 0-36.312057 4.841608-53.257683 14.524823L106.641569 87.451537C72.750317 106.817967 53.383886 143.130024 53.383886 179.44208V586.137116c0 38.732861 19.36643 72.624113 53.257683 91.990544L457.658118 881.475177c31.470449 19.36643 72.624113 19.36643 106.515366 0L915.190033 675.706856c31.470449-19.36643 53.257683-53.257683 53.257683-91.990544v-406.695035c0-38.732861-19.36643-72.624113-53.257683-91.990544l-351.016549-203.347518c-16.945626-4.841608-36.312057-9.683215-53.257683-9.683215z m0 948.955083c-4.841608 0-12.104019-2.420804-16.945626-4.841608L142.953626 612.765957c-9.683215-4.841608-16.945626-14.524823-16.945626-26.628841v-406.695036c0-12.104019 7.262411-21.787234 16.945626-29.049645l351.016549-203.347518c9.683215-4.841608 21.787234-4.841608 33.891253 0l351.016548 203.347518c9.683215 4.841608 16.945626 16.945626 16.945627 29.049645V586.137116c0 12.104019-7.262411 21.787234-16.945627 29.049645L527.861428 816.113475c-4.841608 2.420804-12.104019 4.841608-16.945627 4.841608zM791.72904 414.260047l2.420804 2.420804c2.420804 2.420804 2.420804 7.262411 0 12.104019 0 0 0 2.420804-2.420804 2.420804 0 0 0 2.420804-2.420804 2.420804l-99.252955 101.673758s-2.420804 0-2.420804 2.420804l-2.420804 2.420804H682.79287 339.038733h-2.420804-2.420804s-2.420804 0-2.420804-2.420804c0 0-2.420804 0-2.420804-2.420804L230.102562 433.626478s0-2.420804-2.420803-2.420804l-2.420804-2.420804c-2.420804-2.420804-2.420804-7.262411 0-12.104019 0 0 0-2.420804 2.420804-2.420804v-2.420804l268.709219-278.392434s2.420804 0 2.420804-2.420804h2.420804c2.420804 0 4.841608-2.420804 4.841608-2.420804s4.841608 0 4.841607 2.420804h2.420804s2.420804 0 2.420804 2.420804l275.971631 280.813238c0-2.420804 0 0 0 0z m-455.111111 84.728133l26.628841-60.520095H276.097834l60.520095 60.520095z m26.628841 9.683215h82.307329l-55.678487-60.520095-26.628842 60.520095z m12.104019-101.673759l87.148936-193.664303-188.822695 193.664303h101.673759z m31.47045 0h205.768321l-101.673759-227.555556-104.094562 227.555556z m237.23877 0h101.673759l-188.822695-193.664303 87.148936 193.664303z m14.524823 29.049645l26.628841 60.520095 60.520095-60.520095H658.584832z m-26.628842 12.104019l-55.678487 60.520095H658.584832l-26.628842-60.520095zM537.544643 508.671395l65.361702-72.624114H416.504454l65.361702 72.624114H537.544643z"  horiz-adv-x="1024" />

    
    <glyph glyph-name="sudabaozhang" unicode="&#59010;" d="M510.915801-128c-19.36643 0-36.312057 4.841608-53.257683 14.524823L106.641569 87.451537C72.750317 106.817967 53.383886 143.130024 53.383886 179.44208V586.137116c0 38.732861 19.36643 72.624113 53.257683 91.990544L457.658118 881.475177c31.470449 19.36643 72.624113 19.36643 106.515366 0L915.190033 675.706856c31.470449-19.36643 53.257683-53.257683 53.257683-91.990544v-406.695035c0-38.732861-19.36643-72.624113-53.257683-91.990544l-351.016549-203.347518c-16.945626-4.841608-36.312057-9.683215-53.257683-9.683215z m0 948.955083c-4.841608 0-12.104019-2.420804-16.945626-4.841608L142.953626 612.765957c-9.683215-4.841608-16.945626-14.524823-16.945626-26.628841v-406.695036c0-12.104019 7.262411-21.787234 16.945626-29.049645l351.016549-203.347518c9.683215-4.841608 21.787234-4.841608 33.891253 0l351.016548 203.347518c9.683215 4.841608 16.945626 16.945626 16.945627 29.049645V586.137116c0 12.104019-7.262411 21.787234-16.945627 29.049645L527.861428 816.113475c-4.841608 2.420804-12.104019 4.841608-16.945627 4.841608zM561.752681 406.997636h215.451536v-29.049645H561.752681zM629.535186 479.621749h203.347518v-29.049645h-203.347518zM624.693579 331.952719c-29.049645 0-55.678487-21.787234-60.520095-48.416076h-116.198581V532.879433h300.179669v29.049645H443.133295c-14.524823 0-24.208038-12.104019-24.208038-24.208038v-50.836879H295.464265l-72.624114-91.990544v-116.198582c0-14.524823 12.104019-24.208038 24.208038-24.208037h31.470449c7.262411-26.628842 31.470449-48.416076 60.520095-48.416076s55.678487 21.787234 60.520094 48.416076H561.752681c7.262411-26.628842 31.470449-48.416076 60.520094-48.416076s55.678487 21.787234 60.520095 48.416076h60.520094v29.049645H682.79287c-2.420804 26.628842-26.628842 48.416076-58.099291 48.416076z m-346.174941-48.416076H251.889796v99.252955l58.099291 75.044917h108.93617v-174.297872h-16.945626c-7.262411 26.628842-31.470449 48.416076-60.520095 48.416076s-55.678487-21.787234-62.940898-48.416076z m60.520095-48.416076c-19.36643 0-33.891253 14.524823-33.891253 33.891253s14.524823 33.891253 33.891253 33.891253c19.36643 0 33.891253-14.524823 33.891253-33.891253s-14.524823-33.891253-33.891253-33.891253z m285.654846 0c-19.36643 0-33.891253 14.524823-33.891253 33.891253s14.524823 33.891253 33.891253 33.891253c19.36643 0 33.891253-14.524823 33.891253-33.891253s-14.524823-33.891253-33.891253-33.891253z"  horiz-adv-x="1024" />

    
    <glyph glyph-name="tuihuanhuobaozhang" unicode="&#58918;" d="M516.8-128C363.2-128 80 92.8 80 312L80 745.6l43.2 0c1.6 0 97.6 1.6 198.4 41.6 102.4 41.6 168 88 169.6 88L516.8 896l25.6-19.2c0 0 67.2-48 169.6-88 99.2-40 187.2-41.6 188.8-41.6l43.2 0 0-433.6C944 92.8 668.8-128 516.8-128L516.8-128 516.8-128 516.8-128zM148.8 662.4l0-350.4c0-168 265.6-361.6 368-361.6 100.8 0 358.4 193.6 358.4 361.6L875.2 662.4c-43.2 4.8-123.2 16-195.2 44.8-75.2 30.4-131.2 62.4-161.6 81.6-30.4-19.2-88-52.8-161.6-81.6C281.6 678.4 192 667.2 148.8 662.4L148.8 662.4 148.8 662.4 148.8 662.4zM326.4 400c-12.8 0-20.8 12.8-20.8 24l0 16c0 6.4 6.4 17.6 17.6 25.6l115.2 102.4c9.6 9.6 20.8 9.6 27.2 0l14.4-14.4c9.6-9.6 9.6-20.8 0-27.2l-67.2-62.4 284.8 0c12.8 0 20.8-9.6 20.8-20.8l0-20.8c0-12.8-9.6-20.8-20.8-20.8L326.4 401.6 326.4 400 326.4 400 326.4 400zM699.2 336c12.8 0 20.8-12.8 20.8-24l0-16c0-6.4-6.4-17.6-17.6-25.6l-115.2-102.4c-9.6-9.6-20.8-9.6-27.2 0L544 182.4c-9.6 9.6-9.6 20.8 0 27.2l67.2 62.4L326.4 272c-12.8 0-20.8 9.6-20.8 20.8l0 20.8c0 12.8 9.6 20.8 20.8 20.8L699.2 334.4 699.2 336 699.2 336 699.2 336zM321.6 404.8"  horiz-adv-x="1024" />

    
    <glyph glyph-name="shang" unicode="&#59063;" d="M996.4544 177.46944l-69.16096-69.51424-416.384 415.70304-415.04768-417.01376-69.39648 69.25312 484.20864 486.5536 485.78048-484.98176z"  horiz-adv-x="1024" />

    
    <glyph glyph-name="mendianfuwu" unicode="&#58891;" d="M576-32H240c-48 0-88 40-88 88v320c49.6 0 94.4 25.6 120 64 25.6-38.4 70.4-64 120-64s94.4 25.6 120 64c25.6-38.4 70.4-64 120-64s94.4 25.6 120 64c25.6-38.4 70.4-64 120-64v-48c0-12.8 11.2-24 24-24s24 11.2 24 24V384c56 19.2 96 73.6 96 136v3.2 3.2L932.8 817.6C921.6 852.8 884.8 880 848 880H176C139.2 880 102.4 852.8 91.2 816L9.6 526.4v-9.6c0-62.4 40-115.2 96-136v-328c0-75.2 60.8-136 136-136h336c12.8 0 24 11.2 24 24S588.8-32 576-32zM56 516.8L137.6 803.2C142.4 817.6 160 832 176 832h672c16 0 35.2-14.4 40-28.8l80-286.4c-1.6-51.2-43.2-92.8-96-92.8s-96 43.2-96 96c0 12.8-11.2 24-24 24s-24-11.2-24-24c0-52.8-43.2-96-96-96s-96 43.2-96 96c0 12.8-11.2 24-24 24s-24-11.2-24-24c0-52.8-43.2-96-96-96s-96 43.2-96 96c0 12.8-11.2 24-24 24s-24-11.2-24-24c0-52.8-43.2-96-96-96-51.2 0-94.4 41.6-96 92.8zM894.4 78.4c25.6 22.4 41.6 54.4 41.6 89.6 0 65.6-54.4 120-120 120s-120-54.4-120-120c0-35.2 16-68.8 41.6-89.6-62.4-30.4-105.6-92.8-105.6-166.4 0-12.8 11.2-24 24-24s24 11.2 24 24c0 75.2 60.8 136 136 136s136-60.8 136-136c0-12.8 11.2-24 24-24s24 11.2 24 24c0 73.6-43.2 136-105.6 166.4z m-150.4 89.6c0 40 32 72 72 72s72-32 72-72-32-72-72-72-72 32-72 72z"  horiz-adv-x="1024" />

    
    <glyph glyph-name="shipin" unicode="&#58902;" d="M694.187 366.061l-256.794-146.468c-10.568-6.129-18.599-6.974-23.037-6.974-16.697 0-19.445 19.445-19.445 31.703v293.147c0 12.259 2.747 31.703 19.445 31.703 4.438 0 12.259-1.69 23.037-6.974l257.851-146.468c13.315-6.974 20.29-16.697 20.29-24.728s-8.031-16.908-21.347-24.94zM714.477 456.097l-248.973 141.184c-15.852 8.878-31.703 14.161-46.709 14.161-33.605 0-68.902-24.728-68.902-79.469v-283.425c0-55.586 34.45-79.469 68.902-79.469 15.006 0 30.858 4.438 46.709 14.161l248.973 141.395c28.322 15.852 45.017 39.734 45.017 65.307 0 26.419-16.697 50.302-45.017 66.153zM521.301-9.516c-108.424 0-210.297 41.637-287.018 117.301s-118.781 176.057-118.781 283.002c0 220.864 181.975 400.303 405.799 400.303 223.189 0 404.741-179.65 404.741-400.303 0-62.983-15.006-124.91-44.807-183.454-4.016-10.145-13.315-16.486-24.517-16.486-14.372 0-26.207 11.625-26.207 26.207 0 1.902 0.424 3.593 0.634 4.651 0 0.211 0.211 0.424 0.211 0.845v1.902l1.057 1.902c26.207 49.034 39.524 103.563 39.524 161.897 0 191.063-157.458 346.408-350.846 346.408s-350.635-155.768-350.635-347.464c0-191.063 157.458-346.408 350.846-346.408 73.763 0 145.622 23.672 207.76 68.267 4.227 4.861 10.568 7.609 18.177 7.609 14.372 0 26.207-11.625 26.207-26.207 0-6.552-2.537-13.105-6.974-17.542l-0.845-0.845c-71.649-53.261-156.189-81.583-244.325-81.583zM521.301 774.394c-214.312 0-388.889-172.041-388.889-383.395s174.366-383.395 388.889-383.395c84.33 0 165.067 27.053 233.545 78.201 0.845 1.057 1.69 3.171 1.69 5.072 0 5.072-4.227 9.299-9.299 9.299-1.48 0-4.438-0.211-5.496-1.902l-0.845-1.057-1.057-0.845c-65.307-47.343-140.761-72.283-218.539-72.283-98.28 0-190.641 37.832-259.964 106.31-69.535 68.478-107.79 159.784-107.79 256.794 0 200.998 164.856 364.372 367.754 364.372 98.28 0 190.641-37.832 259.964-106.31 69.535-68.69 107.579-159.784 107.579-257.006 0-60.659-13.738-117.301-40.79-168.449-0.211-0.845-0.424-1.48-0.424-2.114 0-0.211-0.211-0.424-0.211-0.845 0-5.072 4.227-9.088 9.299-9.088 4.227 0 7.398 2.114 8.878 5.917l0.424 0.845c28.744 56.432 43.327 115.821 43.327 176.268-0.211 211.565-174.155 383.606-388.044 383.606z"  horiz-adv-x="1024" />

    
    <glyph glyph-name="zuoyou" unicode="&#58923;" d="M246.148 408.854l473.689 473.689c7.581 7.581 18.053 12.269 29.621 12.269 23.135 0 41.89-18.755 41.89-41.89 0-11.568-4.689-22.040-12.269-29.621l-448.846-448.846 434.434-434.514c6.915-7.152 11.176-16.908 11.176-27.658 0-21.988-17.825-39.813-39.813-39.813-10.751 0-20.506 4.261-27.669 11.186l-450.428 450.428c-5.447 5.544-9.262 12.708-10.658 20.703 0.864-5.573-0.33-6.291-1.127-5.097-7.558 7.576-12.232 18.032-12.232 29.581 0 11.548 4.674 22.005 12.233 29.581z"  horiz-adv-x="1024" />

    
    <glyph glyph-name="youxi" unicode="&#58903;" d="M498.5 522.4c-10.2 0-18.4 8.2-18.4 18.4v91.9c0 7.9 2.8 15.6 8 21.6l61.3 71.5c6.6 7.7 18.2 8.6 25.9 2 7.7-6.6 8.6-18.2 2-25.9l-60.5-70.5v-90.5c0.1-10.3-8.2-18.5-18.3-18.5zM867.3 35.8H156.7c-42.3 0-76.7 34.4-76.7 76.7V477.1c0 42.3 34.4 76.7 76.7 76.7h710.7c42.3 0 76.7-34.4 76.7-76.7v-364.6c-0.1-42.3-34.5-76.7-76.8-76.7zM156.7 517c-22 0-39.9-17.9-39.9-39.9v-364.6c0-22 17.9-39.9 39.9-39.9h710.7c22 0 39.9 17.9 39.9 39.9V477.1c0 22-17.9 39.9-39.9 39.9H156.7zM417.4 281.8h-173c-10.2 0-18.4 8.2-18.4 18.4s8.2 18.4 18.4 18.4h173c10.2 0 18.4-8.2 18.4-18.4s-8.3-18.4-18.4-18.4zM330.9 184.5c-10.2 0-18.4 8.2-18.4 18.4V386.7c0 10.2 8.2 18.4 18.4 18.4s18.4-8.2 18.4-18.4v-183.8c0-10.2-8.3-18.4-18.4-18.4zM612 297.5m-32.4 0a32.4 32.4 0 1 1 64.8 0 32.4 32.4 0 1 1-64.8 0ZM747.2 292.1m-32.4 0a32.4 32.4 0 1 1 64.8 0 32.4 32.4 0 1 1-64.8 0Z"  horiz-adv-x="1024" />

    
    <glyph glyph-name="jijin" unicode="&#58890;" d="M697.33 628.17c5.84 11.156 8.632 18.39 8.632 22.19-1.904 14.836-10.535 23.05-25.768 24.89-15.359 0-26.783-6.498-34.4-19.372L513.782 464.737 381.768 656c-7.616 12.873-19.168 19.371-34.4 19.371-15.36-1.839-23.864-10.176-25.768-24.889 1.904-7.478 4.697-14.835 8.632-22.191 1.904-1.84 2.92-3.678 2.92-5.517l117.669-174.59h-68.927c-21.07 0-31.607-8.337-31.607-24.889 1.904-12.996 12.44-20.352 31.607-22.192h100.407v-49.777H381.894c-21.07 0-31.607-8.337-31.607-24.889 1.904-12.874 12.44-20.352 31.607-22.191h100.407V193.41c0-18.39 10.409-27.708 31.607-27.708 20.944 0 31.48 9.318 31.48 27.708V304h100.407c19.04 1.84 29.576 9.318 31.607 22.192 0 16.674-10.536 24.889-31.607 24.889H545.388v49.777h100.407c19.04 1.84 29.576 9.196 31.607 22.192 0 16.674-10.536 24.889-31.607 24.889h-68.8l117.67 174.59c-0.127 1.961 0.762 3.8 2.666 5.64zM908.173 282.3l-74.258-7.724c-7.87-0.735-14.725-5.64-17.898-12.628-3.173-6.866-2.285-15.08 2.285-21.21l7.362-9.687L500.2-3.125l-87.46 105.073c-8.885 10.667-25.133 12.751-36.558 4.536-36.684-26.36-91.14-65.103-100.025-70.62-11.424-5.763-17.01-18.759-12.82-30.897 4.696-13.486 19.674-20.597 33.637-16.184 4.57 1.472 7.743 2.575 90.379 61.793l87.459-105.072c5.204-6.253 12.947-9.563 20.69-9.563 5.459 0 11.044 1.594 15.867 5.15l345.774 248.642 5.331-7.11c4.19-5.518 10.917-8.706 17.899-8.706 0.761 0 1.523 0 2.284 0.123 7.87 0.858 14.725 5.64 18.025 12.628l30.211 66.084c3.047 6.989 2.285 15.08-2.412 21.334-4.696 5.762-12.44 9.072-20.31 8.214zM513.782 830.713c-246.765 0-447.45-193.839-447.45-432.183 0-115.372 46.585-223.877 130.997-305.532 5.205-5.027 11.932-7.479 18.787-7.479a27.345 27.345 0 0 1 18.786 7.479c10.41 10.053 10.41 26.237 0 36.291-74.511 71.847-115.511 167.601-115.511 269.24 0 210.023 176.822 380.812 394.263 380.812S907.918 608.552 907.918 398.53c0-14.222 11.932-25.625 26.656-25.625 14.725 0 26.53 11.525 26.53 25.625 0 238.344-200.686 432.183-447.323 432.183z"  horiz-adv-x="1024" />

    
    <glyph glyph-name="fankui" unicode="&#58906;" d="M731.9-38.2h-552c-63.7 0-115.5 51.8-115.5 115.5V666.5c0 63.7 51.8 115.5 115.5 115.5h434.3c7.7 0 14-6.3 14-14s-6.3-14-14-14H179.8c-48.2 0-87.5-39.2-87.5-87.5v-589.2c0-48.2 39.2-87.5 87.5-87.5h552c48.2 0 87.5 39.2 87.5 87.5v358c0 7.7 6.3 14 14 14s14-6.3 14-14v-358c0-63.7-51.8-115.5-115.4-115.5zM473.7 306.2c-3.6 0-7.2 1.4-9.9 4.1-5.5 5.5-5.5 14.3 0 19.8l472 472c5.5 5.5 14.3 5.5 19.8 0s5.5-14.3 0-19.8l-472-472c-2.7-2.7-6.3-4.1-9.9-4.1z"  horiz-adv-x="1024" />

    
    <glyph glyph-name="shang1" unicode="&#58955;" d="M532.094 140.583c-11.546-11.698-30.264-11.698-41.806 0l-418.063 423.64c-11.546 11.696-11.546 30.661 0 42.359l20.903 21.184c11.541 11.696 30.261 11.696 41.807 0l376.255-381.276 376.257 381.276c11.546 11.696 30.264 11.696 41.806 0l20.903-21.184c11.541-11.698 11.541-30.662 0-42.359l-418.064-423.64zM532.094 140.583z"  horiz-adv-x="1024" />

    
    <glyph glyph-name="qian" unicode="&#58897;" d="M140.448878 569.137157v-120.01995h308.987531v-150.663342H140.448878v-120.01995h308.987531v-306.433915h117.466334v306.433915h306.433915v120.01995h-306.433915v150.663342h306.433915v120.01995h-250.254364L888.658354 893.446384 725.226933 896l-211.950125-270.683292L298.773067 896 135.341646 893.446384l265.57606-324.309227z"  horiz-adv-x="1024" />

    
    <glyph glyph-name="guomeizaixian_shouji" unicode="&#58911;" d="M753.874051 893.768205c73.045333 0 70.892308-72.283897 70.892308-72.283897V-53.431795c0-70.078359-67.715282-68.97559-67.715282-68.97559H263.614359c-73.124103 0-66.507487 71.890051-66.507487 71.890052l0.262564 872.001641C197.343179 894.844718 267.185231 893.768205 267.185231 893.768205h486.68882z m-243.554461-946.070974a34.921026 34.921026 0 0 1 34.921025 35.052307 34.921026 34.921026 0 1 1-69.842051 0c0-19.429744 15.622564-35.052308 34.921026-35.052307zM264.349538 87.827692h491.940103V788.532513H264.349538v-700.731077z"  horiz-adv-x="1024" />

    
    <glyph glyph-name="fabulous" unicode="&#58885;" d="M729.074-65.13099999999997H414.096c-20.687 0-37.453 17.069-37.453 38.104 0 21.064 16.738 38.104 37.453 38.104h314.978c2.272 0 5.651 0.496 9.22 2.921 3.382 2.317 5.112 5.432 5.816 7.61l135.962 314.645c8.655 19.658 6.79 42.115-4.676 60.064-11.52 17.963-30.962 28.688-52.001 28.688l-197.779 0.054c-16.577 0-31.045 10.988-35.803 27.103-4.651 16.089 1.46 33.46 15.25 42.695 32.126 21.588 63.331 140.283 37.642 219.083-14.44 44.582-37.642 43.259-47.674 42.694l-10.95-0.096c-14.658 0-28.449-5.805-38.888-16.364-10.33-10.588-16.008-24.65-16.008-39.648v-51.972c0-60.561-23.23-117.509-65.197-160.286-37.182-37.994-85.288-60.836-137.045-65.496v-413.845c0-19.8-7.517-38.326-21.255-52.277-13.765-14.035-32.07-21.782-51.325-21.782h-120.66c-18.686 0-36.236 7.444-49.324 20.871-13.169 13.426-20.335 31.294-20.335 50.208V420.18c0 20.72 7.896 40.337 22.31 55.02 14.52 14.71 33.64 22.76 54.029 22.76h166.494c39.48 0 76.472 15.701 104.434 44.128 27.745 28.454 43.186 66.228 43.186 106.467v51.972c0 35.388 13.439 68.585 37.966 93.453 24.58 24.995 57.056 38.738 91.67 38.738h8.76c55.544 3.226 100-31.197 120.77-94.776 21.47-66.186 15.44-166.008-15.199-236.77h124.957c46.377-0.082 89.265-23.711 114.52-63.29 25.34-39.649 29.314-89.111 10.6-132.288l-135.314-313.24c-6.166-15.91-17.632-30.632-32.83-41.302-15.304-10.612-33.043-16.183-51.323-16.183z m-590.34 76.18h113.464V421.877H140.383l-1.65-410.828z"  horiz-adv-x="1024" />

    
    <glyph glyph-name="you1" unicode="&#58883;" d="M777.852 359.1460000000001l-473.68899999999985-473.6890000000003c-7.580999999999999-7.581000000000003-18.052999999999994-12.269000000000009-29.620999999999995-12.269000000000009-23.135-1.0658141036401503e-14-41.890000000000015 18.75499999999999-41.890000000000015 41.88999999999999-5.329070518200751e-15 11.568 4.688999999999993 22.04 12.26899999999999 29.621000000000006l448.8459999999999 448.84600000000006-434.43400000000014 434.5139999999999c-6.915000000000003 7.151999999999996-11.176000000000005 16.907999999999998-11.176000000000004 27.657999999999998-5.329070518200751e-15 21.988 17.82499999999999 39.81300000000002 39.812999999999995 39.81300000000002 10.751 3.552713678800501e-15 20.506-4.260999999999996 27.668999999999997-11.18599999999999l450.42800000000005-450.42799999999977c5.447000000000002-5.543999999999999 9.262000000000004-12.707999999999997 10.658000000000005-20.702999999999992-0.8640000000000021 5.572999999999999 0.3299999999999974 6.291 1.1269999999999982 5.097 7.558000000000002-7.575999999999998 12.232000000000003-18.031999999999996 12.232000000000008-29.580999999999992 5.329070518200751e-15-11.548000000000002-4.673999999999992-22.005-12.232999999999992-29.581000000000003z"  horiz-adv-x="1024" />

    
    <glyph glyph-name="shoujichongzhi-copy" unicode="&#58884;" d="M431.40035500562965 135.51646098014805c0.017386458074074074 19.950118381037036 2.32734841362963 39.37739055407407 6.707581686518519 58.006111421629626L177.32198946133332 193.52257118814805 177.32198946133332 740.5599263099259l437.6259097031111 0 0-361.0544155306667c17.528384777481484 5.068254473481481 35.81806243081481 8.293506768592591 54.70510193777777 9.475808976592594L669.6530011022221 767.9031632782222c0 45.139873943703705-36.93826927881481 82.05082199229629-82.06696690725926 82.05082199229629L204.65529165748154 849.9539852705185c-45.12869762844445 0-82.04088600651853-36.910948048592594-82.04088600651853-82.05082199229629l0-711.1303058773334c0-45.138632400592584 36.9121895917037-82.06820845037035 82.04088600651853-82.06820845037035l284.2109421037037 0C452.9239793967407 18.54299613866681 431.3618562465185 74.54341468918528 431.40035500562965 135.51646098014805M286.7073551928889 808.9285742743705l218.82661546666665 0 0-27.36186496948148L286.7073551928889 781.5667080912592 286.7073551928889 808.9285742743705zM685.7718133191113 346.0172798482964c-118.22779718162961 0.018629214814814814-214.2265635271111-95.84228458192592-214.3184656308148-213.98935840237039-0.053402130962962965-118.19053996562963 96.18008625303703-214.22283768414817 214.63887963022222-214.1520490951111 117.90862593896294 0.036015672888888885 213.9421652005926 95.96150912948147 214.12596940799997 213.81424863762962C900.3634997475556 249.91046769777768 804.2194291674074 346.0172798482964 685.7718133191113 346.0172798482964M783.2732958720001 45.480127146666746c-3.611487497481481-2.492523406222222-8.194152978962961-3.7567917321481477-13.729367229629627-3.7567917321481477l-58.3439118791111 0 0-16.659043669333336c0-4.993738827851852-2.080207303111111-9.86080263585185-6.24931513837037-14.59001389511111-4.160414606222222-4.708098958222222-9.583855995259258-6.790789347555555-16.245486023111113-6.24683083851852-6.662872784592593 0-12.21547349333333 1.5387318802962962-16.66897965511111 4.58018118162963-4.424942174814815 3.061320059259259-6.917465581037037 8.487245748148148-7.486262234074075 16.25790509511111l0 16.659043669333336-56.6586330074074 0c-5.553842251851851 0-10.135266190222222 1.521345422222222-13.754205373629627 4.581423938370369-3.5990684254814815 3.061320059259259-5.1216566044444445 6.816870248296296-4.58018118162963 11.261683181037037 0 4.993738827851852 1.8057437487407404 9.007607656296296 5.424682932148149 12.085072630518518 3.5990684254814815 3.042690844444444 7.915964795259259 4.582665481481481 12.910945166222222 4.582665481481481l56.6586330074074 0 0 29.140287488000002-56.6586330074074 0c-5.553842251851851 0-9.997413641481481 1.6678912000000001-13.323261269333333 5.012368042666667-3.3370251567407405 3.3171543988148144-5.012368042666667 7.22049190874074-5.012368042666667 11.655370069333333 0 4.443571389629629 1.8057437487407404 8.61516231111111 5.424682932148149 12.49863027674074 3.5990684254814815 3.8760162797037037 7.915964795259259 5.836999035259259 12.910945166222222 5.836999035259259l56.6586330074074 0 0.8246309925925926 17.483675875555555c-9.997413641481481 10.007348413629627-19.160260304592594 19.44465863111111-27.491024289185184 28.34297772562963-7.213040222814814 7.770660560592592-13.89205792237037 14.991152469333331-19.984891297185182 21.654025253925926l-12.499871819851851 11.656611612444442c-2.775678976 3.3357824000000003-5.27689561125926 7.91720633837037-7.504890235259259 13.75296383051852-2.215575552 5.83824057837037-1.1102720758518518 11.804398933333331 3.3357824000000003 17.907168293925924 4.993738827851852 5.552600708740741 11.116378946370368 7.072704587851851 18.335629312 4.58018118162963 7.2031054506666665-2.5012166352592593 13.041346029037035-5.690453257481481 17.494852190814814-9.57516276622222 2.2081238660740743-2.775678976 6.094076131555555-6.94727111111111 11.655370069333333-12.499871819851851l17.503546633481484-17.483675875555555 22.487349475555558-22.50473714725926c9.439793303703704 8.878448336592593 18.05123098548148 16.943441995851853 25.82313308918518 24.155241889185184 6.680259242666667 6.11270413274074 13.340647727407406 12.085072630518518 20.002278968888888 17.924554752 6.661630027851852 5.827064263111111 11.39084128711111 9.850867863703703 14.167763019851852 12.077620944592592 4.993738827851852 4.433635403851852 10.547582293333331 6.670324470518518 16.649108897185183 6.670324470518518 6.122640118518518 0 11.106442960592593-2.518603093333333 15.011023227259258-7.513584677925926 7.22049190874074-8.329522441481481 4.433635403851852-18.033843313777776-8.319586455703703-29.140287488000002-3.3556531579259254-2.775678976-8.340698756740741-7.642742783999999-15.002329998222223-14.588772352000001-6.679017699555556-6.936093582222221-13.351825256296294-13.754205373629627-20.010972197925923-20.41583661511111-7.764450417777778-8.329522441481481-16.377129642666667-16.943441995851853-25.825616175407404-25.82313308918518l0-15.835654219851852 54.148724356740736 0c7.789288561777778 0 13.488436261925926-1.8045022056296296 17.101165302518517-5.404813387851851 3.5916179531851853-3.630116712296296 5.387425716148148-7.642742783999999 5.387425716148148-12.087555716740741 0-4.993738827851852-1.6492631988148148-9.309392440888889-4.985045598814814-12.910945166222222-3.3357824000000003-3.620181940148148-8.888383108740738-5.141527362370369-16.660286426074073-4.581423938370369l-54.13878837096296-0.8432602074074075-0.8531949795555556-28.31565528177778 53.32409215051851 0c15.558707579259258 0 23.311981681777777-5.836999035259259 23.311981681777777-17.4936106477037C788.4222737066668 51.99521139674073 786.8823002832593 47.972649339259306 783.2732958720001 45.480127146666746"  horiz-adv-x="1024" />

    
    <glyph glyph-name="you2" unicode="&#58886;" d="M511.9999999999999 895.9999999999999C794.7519999999997 896 1023.9999999999998 666.8800000000002 1024 384.0000000000001S794.7520000000001-127.99999999999977 512.0000000000001-128s-512.0000000000001 229.11999999999992-512.0000000000001 511.9999999999998 229.24799999999982 512 511.9999999999998 512.0000000000001z m3.410605131648481e-13-928C741.376-32 928 154.56000000000017 928 384.0000000000002s-186.62400000000014 416-416.0000000000001 415.99999999999983-416-186.56000000000014-415.99999999999983-416.0000000000001S282.6240000000003-32.000000000000114 512.0000000000002-32z m79.99999999999977 640c26.496000000000002 1.0658141036401503e-14 48-21.439999999999994 48.00000000000002-47.999999999999986 4.440892098500626e-15-14.079999999999998-6.08-26.56-15.647999999999987-35.20000000000001l0.09600000000000011-0.3199999999999999L471.03999999999996 384 624.4480000000001 243.51999999999998l-0.09599999999999988-0.32000000000000006C633.9200000000001 234.55999999999995 640 222.08000000000004 640.0000000000002 208c7.105427357601002e-15-26.56-21.503999999999984-48.00000000000001-47.999999999999986-48.00000000000002-12.512-5.329070518200751e-15-23.776000000000003 4.799999999999994-32.352000000000004 12.799999999999992l-0.09599999999999988-0.32000000000000006-192.00000000000006 175.99999999999991C357.664 357.76 352 370.55999999999995 352 384c-3.552713678800501e-15 13.439999999999998 5.663999999999991 26.240000000000002 15.551999999999992 35.52000000000001l191.9999999999999 176.00000000000003 0.09600000000000011-0.3199999999999999c8.575999999999997 8.000000000000002 19.839999999999996 12.800000000000004 32.35199999999999 12.800000000000013z"  horiz-adv-x="1024" />

    
    <glyph glyph-name="xinxi" unicode="&#59057;" d="M860.8 219H707.4c-9.9 0-17.9 8-17.9 17.9s8 17.9 17.9 17.9h146.3v419H178.9v-419h362.5c9.9 0 17.9-8 17.9-17.9s-8-17.9-17.9-17.9H171.7c-15.8 0-28.7 12.9-28.7 28.7V681.1c0 15.8 12.9 28.7 28.7 28.7h689.2c15.8 0 28.7-12.9 28.7-28.7v-433.4c0-15.8-12.9-28.7-28.8-28.7zM331.4 404.3c-33.1 0-60.1 27-60.1 60.1s27 60.1 60.1 60.1 60.1-27 60.1-60.1-26.9-60.1-60.1-60.1z m0 84.3c-13.4 0-24.2-10.9-24.2-24.2 0-13.4 10.9-24.2 24.2-24.2 13.4 0 24.2 10.9 24.2 24.2 0 13.3-10.8 24.2-24.2 24.2zM516.3 404.3c-33.1 0-60.1 27-60.1 60.1s27 60.1 60.1 60.1c33.2 0 60.1-27 60.1-60.1s-27-60.1-60.1-60.1z m0 84.3c-13.4 0-24.2-10.9-24.2-24.2 0-13.4 10.9-24.2 24.2-24.2s24.2 10.9 24.2 24.2c0 13.3-10.9 24.2-24.2 24.2zM701.1 404.3c-33.2 0-60.1 27-60.1 60.1s27 60.1 60.1 60.1c33.2 0 60.1-27 60.1-60.1s-26.9-60.1-60.1-60.1z m0 84.3c-13.4 0-24.2-10.9-24.2-24.2 0-13.4 10.9-24.2 24.2-24.2 13.4 0 24.2 10.9 24.2 24.2 0 13.3-10.8 24.2-24.2 24.2zM742 51.5c-8.3 0-15.7 5.8-17.5 14.2L689.8 229c-2.1 9.7 4.1 19.2 13.8 21.3 9.7 2.1 19.2-4.1 21.3-13.8l34.7-163.3c2.1-9.7-4.1-19.2-13.8-21.3-1.3-0.3-2.5-0.4-3.8-0.4zM741.5 51.8c-3.7 0-7.4 1.1-10.6 3.5L596.2 154c-8 5.9-9.7 17.1-3.9 25.1 5.9 8 17.1 9.7 25.1 3.9L752 84.2c8-5.9 9.7-17.1 3.9-25.1-3.5-4.8-8.9-7.3-14.4-7.3z"  horiz-adv-x="1024" />

    
    <glyph glyph-name="soushuo" unicode="&#58887;" d="M222.6944 673.2032A323.1488 323.1488 0 0 1 133.6832 384c19.2512 87.3728 64.512 172.7488 135.0144 243.3024C339.2512 697.8815999999999 424.6272 743.1168 512 762.3679999999999c-101.632 19.1488-210.688-10.5216-289.3056-89.1648zM989.44 73.88160000000005l-121.7024 121.7024a118.016 118.016 0 0 1-92.8 34.1248c114.4576 165.5552 97.92 394.3936-49.4848 541.824-165.9392 165.9904-435.0464 165.9904-601.0368 0-165.9392-165.9904-165.9392-435.1232 0-601.1136 147.4048-147.4304 376.064-163.84 541.7216-49.3824-2.56-33.28 8.8576-67.5328 34.1248-92.8l121.7024-121.728c46.08-45.9776 121.3696-45.9776 167.3472 0 46.208 45.9776 46.208 121.2928 0.128 167.3728zM676.096 219.904c-138.6752-138.6752-363.392-138.6752-502.016 0-138.6752 138.6752-138.6752 363.4432 0 502.1184 138.624 138.6752 363.3408 138.6752 502.016 0 138.6496-138.5728 138.6496-363.4432 0-502.1184z"  horiz-adv-x="1024" />

    
    <glyph glyph-name="gouwuche1" unicode="&#58892;" d="M347.136 112.63999999999999q19.456 0 36.864-7.168t30.72-19.968 20.48-30.208 7.168-36.864-7.168-36.864-20.48-30.208-30.72-20.48-36.864-7.68q-20.48 0-37.376 7.68t-30.208 20.48-20.48 30.208-7.168 36.864 7.168 36.864 20.48 30.208 30.208 19.968 37.376 7.168zM773.12 110.59199999999998q19.456 0 37.376-7.168t30.72-19.968 20.48-30.208 7.68-36.864-7.68-36.864-20.48-30.208-30.72-20.48-37.376-7.68-36.864 7.68-30.208 20.48-20.48 30.208-7.68 36.864 7.68 36.864 20.48 30.208 30.208 19.968 36.864 7.168zM945.152 692.2239999999999q28.672 0 44.544-7.68t22.528-18.944 6.144-24.064-3.584-22.016-12.8-37.888-22.016-62.976-24.064-68.096-17.92-53.248q-13.312-40.96-33.792-56.832t-50.176-15.872l-34.816 0-66.56 0-87.04 0-95.232 0-253.952 0 15.36-92.16 516.096 0q49.152 0 49.152-41.984 0-20.48-9.728-35.328t-38.4-14.848l-49.152 0-95.232 0-117.76 0-119.808 0-98.304 0-56.32 0q-20.48 0-34.304 9.216t-23.04 24.064-14.848 32.256-8.704 32.768q-1.024 6.144-5.632 29.696t-11.264 58.88-14.848 78.848-16.384 87.552q-19.456 103.424-44.032 230.4l-76.8 0q-15.36 0-25.6 7.68t-16.896 18.432-9.216 23.04-2.56 22.528q0 20.48 13.824 33.792t37.376 13.312l22.528 0 20.48 0 25.6 0 34.816 0q20.48 0 32.768-6.144t19.456-15.36 10.24-19.456 5.12-17.408q2.048-8.192 4.096-23.04t4.096-30.208q3.072-18.432 6.144-38.912l700.416 0z"  horiz-adv-x="1024" />

    
    <glyph glyph-name="erweima" unicode="&#58888;" d="M62.996776 411.938306l423.162696 0L486.159472 835.099978 62.996776 835.099978 62.996776 411.938306zM168.788218 729.30956l211.580836 0 0-211.580836L168.788218 517.728724 168.788218 729.30956zM539.055193 835.099978l0-423.162696 423.162696 0L962.217888 835.099978 539.055193 835.099978zM856.426447 517.728724L644.845611 517.728724 644.845611 729.30956l211.580836 0L856.426447 517.728724zM221.682915 570.623421l105.790418 0L327.473333 676.414863 221.682915 676.414863 221.682915 570.623421zM62.996776-64.12011099999995l423.162696 0L486.159472 359.04258500000003 62.996776 359.04258500000003 62.996776-64.12011099999995zM168.788218 253.252167l211.580836 0 0-211.580836L168.788218 41.67133100000001 168.788218 253.252167zM803.531749 676.414863L697.740308 676.414863l0-105.790418 105.790418 0L803.530726 676.414863zM539.055193-64.12011099999995l105.790418 0L644.845611 41.67030799999998 539.055193 41.67030799999998 539.055193-64.12011099999995zM644.845611 253.252167l0-211.580836 105.790418 0L750.636029 253.252167 644.845611 253.252167zM856.426447 41.67030799999998L750.636029 41.67030799999998 750.636029-64.12011099999995l211.580836 0L962.216865 147.46174900000005 856.426447 147.46174900000005 856.426447 41.67030799999998zM856.426447 253.252167l105.790418 0L962.216865 359.04258500000003 856.426447 359.04258500000003 856.426447 253.252167zM539.055193 359.04258500000003l0-105.790418 105.790418 0L644.845611 359.04258500000003 539.055193 359.04258500000003zM221.682915 94.56602799999996l105.790418 0L327.473333 200.356446 221.682915 200.356446 221.682915 94.56602799999996z"  horiz-adv-x="1024" />

    
    <glyph glyph-name="weixingongzhonghao" unicode="&#58941;" d="M616.025397 593.67619c34.133333 0 56.888889 22.755556 56.888889 56.888889s-22.755556 55.263492-56.888889 55.263492-68.266667-22.755556-68.266667-55.263492c1.625397-34.133333 34.133333-56.888889 68.266667-56.888889M302.32381 705.828571c-34.133333 0-68.266667-22.755556-68.266667-55.263492 0-34.133333 34.133333-56.888889 68.266667-56.888889s55.263492 22.755556 55.263492 56.888889-21.130159 55.263492-55.263492 55.263492M141.409524 84.926984l42.260317 125.155556c0 1.625397 0 3.250794-1.625397 4.87619C63.390476 297.853968 3.250794 398.628571 3.250794 515.657143 3.250794 723.707937 203.174603 892.749206 448.609524 892.749206c216.177778 0 407.974603-133.28254 446.984127-308.825396l-32.507937-6.501588C827.326984 738.336508 648.533333 860.24127 448.609524 860.24127c-227.555556 0-412.850794-154.412698-412.850794-344.584127 0-105.650794 55.263492-196.673016 164.16508-273.066667 13.003175-9.752381 19.504762-26.006349 14.628571-42.260317l-16.253968-50.387302 78.019047 39.009524c6.501587 3.250794 16.253968 4.87619 24.380953 3.250794l26.006349-4.876191c43.885714-8.126984 79.644444-16.253968 123.530159-16.253968 13.003175 0 26.006349 0 39.009523 1.625397 4.87619 0 9.752381 0 11.377778-1.625397l-8.126984-30.88254h-1.625397c-13.003175-1.625397-27.631746-1.625397-40.63492-1.625397-47.136508 0-87.771429 8.126984-130.031746 17.879365l-26.00635 4.876191h-3.250793l-149.536508-76.393651zM1136.152381-128l-113.777778 61.765079h-1.625397c-43.885714-11.377778-89.396825-22.755556-134.907936-22.755555-208.050794 0-377.092063 144.660317-377.092064 321.828571S677.790476 554.666667 885.84127 554.666667c204.8 0 377.092063-147.911111 377.092063-321.828572 0-89.396825-55.263492-180.419048-156.038095-255.187301-1.625397-1.625397-1.625397-3.250794-1.625397-4.876191l30.88254-100.774603z m-115.403175 95.898413c6.501587 0 13.003175-1.625397 17.879365-4.876191l43.885715-24.380952-8.126984 26.006349c-4.87619 14.628571 1.625397 30.88254 13.003174 40.634921 92.647619 68.266667 143.034921 151.161905 143.034921 229.180952 0 156.038095-157.663492 289.320635-344.584127 289.320635-190.171429 0-344.584127-130.031746-344.584127-289.320635s154.412698-289.320635 344.584127-289.320635c40.634921 0 84.520635 11.377778 125.155555 21.130159 3.250794 1.625397 6.501587 1.625397 9.752381 1.625397zM762.311111 380.749206c-22.755556 0-45.511111-22.755556-45.511111-45.511111s22.755556-45.511111 45.511111-45.511111c34.133333 0 55.263492 22.755556 55.263492 45.511111s-21.130159 45.511111-55.263492 45.511111M1009.371429 380.749206c-22.755556 0-43.885714-22.755556-43.885715-45.511111s22.755556-45.511111 43.885715-45.511111c34.133333 0 56.888889 22.755556 56.888888 45.511111-1.625397 22.755556-24.380952 45.511111-56.888888 45.511111"  horiz-adv-x="1267" />

    


  </font>
</defs>
</svg>
